<svg class="rich-terminal" viewBox="0 0 1726 1074.8" xmlns="http://www.w3.org/2000/svg">
    <!-- Generated with Rich https://www.textualize.io -->
    <style>

    @font-face {
        font-family: "Fira Code";
        src: local("FiraCode-Regular"),
                url("https://cdnjs.cloudflare.com/ajax/libs/firacode/6.2.0/woff2/FiraCode-Regular.woff2") format("woff2"),
                url("https://cdnjs.cloudflare.com/ajax/libs/firacode/6.2.0/woff/FiraCode-Regular.woff") format("woff");
        font-style: normal;
        font-weight: 400;
    }
    @font-face {
        font-family: "Fira Code";
        src: local("FiraCode-Bold"),
                url("https://cdnjs.cloudflare.com/ajax/libs/firacode/6.2.0/woff2/FiraCode-Bold.woff2") format("woff2"),
                url("https://cdnjs.cloudflare.com/ajax/libs/firacode/6.2.0/woff/FiraCode-Bold.woff") format("woff");
        font-style: bold;
        font-weight: 700;
    }

    .terminal-2237602389-matrix {
        font-family: Fira Code, monospace;
        font-size: 20px;
        line-height: 24.4px;
        font-variant-east-asian: full-width;
    }

    .terminal-2237602389-title {
        font-size: 18px;
        font-weight: bold;
        font-family: arial;
    }

    .terminal-2237602389-r1 { fill: #e4e6e7 }
.terminal-2237602389-r2 { fill: #c5c8c6 }
.terminal-2237602389-r3 { fill: #fea62b }
.terminal-2237602389-r4 { fill: #797979 }
.terminal-2237602389-r5 { fill: #fea62b;font-weight: bold }
.terminal-2237602389-r6 { fill: #ddedf9;font-weight: bold }
.terminal-2237602389-r7 { fill: #4f4f4f }
.terminal-2237602389-r8 { fill: #0178d4 }
.terminal-2237602389-r9 { fill: #e0e0e0 }
.terminal-2237602389-r10 { fill: #ffa62b;font-weight: bold }
.terminal-2237602389-r11 { fill: #495259 }
    </style>

    <defs>
    <clipPath id="terminal-2237602389-clip-terminal">
      <rect x="0" y="0" width="1707.0" height="1023.8" />
    </clipPath>
    <clipPath id="terminal-2237602389-line-0">
    <rect x="0" y="1.5" width="1708" height="24.65"/>
            </clipPath>
<clipPath id="terminal-2237602389-line-1">
    <rect x="0" y="25.9" width="1708" height="24.65"/>
            </clipPath>
<clipPath id="terminal-2237602389-line-2">
    <rect x="0" y="50.3" width="1708" height="24.65"/>
            </clipPath>
<clipPath id="terminal-2237602389-line-3">
    <rect x="0" y="74.7" width="1708" height="24.65"/>
            </clipPath>
<clipPath id="terminal-2237602389-line-4">
    <rect x="0" y="99.1" width="1708" height="24.65"/>
            </clipPath>
<clipPath id="terminal-2237602389-line-5">
    <rect x="0" y="123.5" width="1708" height="24.65"/>
            </clipPath>
<clipPath id="terminal-2237602389-line-6">
    <rect x="0" y="147.9" width="1708" height="24.65"/>
            </clipPath>
<clipPath id="terminal-2237602389-line-7">
    <rect x="0" y="172.3" width="1708" height="24.65"/>
            </clipPath>
<clipPath id="terminal-2237602389-line-8">
    <rect x="0" y="196.7" width="1708" height="24.65"/>
            </clipPath>
<clipPath id="terminal-2237602389-line-9">
    <rect x="0" y="221.1" width="1708" height="24.65"/>
            </clipPath>
<clipPath id="terminal-2237602389-line-10">
    <rect x="0" y="245.5" width="1708" height="24.65"/>
            </clipPath>
<clipPath id="terminal-2237602389-line-11">
    <rect x="0" y="269.9" width="1708" height="24.65"/>
            </clipPath>
<clipPath id="terminal-2237602389-line-12">
    <rect x="0" y="294.3" width="1708" height="24.65"/>
            </clipPath>
<clipPath id="terminal-2237602389-line-13">
    <rect x="0" y="318.7" width="1708" height="24.65"/>
            </clipPath>
<clipPath id="terminal-2237602389-line-14">
    <rect x="0" y="343.1" width="1708" height="24.65"/>
            </clipPath>
<clipPath id="terminal-2237602389-line-15">
    <rect x="0" y="367.5" width="1708" height="24.65"/>
            </clipPath>
<clipPath id="terminal-2237602389-line-16">
    <rect x="0" y="391.9" width="1708" height="24.65"/>
            </clipPath>
<clipPath id="terminal-2237602389-line-17">
    <rect x="0" y="416.3" width="1708" height="24.65"/>
            </clipPath>
<clipPath id="terminal-2237602389-line-18">
    <rect x="0" y="440.7" width="1708" height="24.65"/>
            </clipPath>
<clipPath id="terminal-2237602389-line-19">
    <rect x="0" y="465.1" width="1708" height="24.65"/>
            </clipPath>
<clipPath id="terminal-2237602389-line-20">
    <rect x="0" y="489.5" width="1708" height="24.65"/>
            </clipPath>
<clipPath id="terminal-2237602389-line-21">
    <rect x="0" y="513.9" width="1708" height="24.65"/>
            </clipPath>
<clipPath id="terminal-2237602389-line-22">
    <rect x="0" y="538.3" width="1708" height="24.65"/>
            </clipPath>
<clipPath id="terminal-2237602389-line-23">
    <rect x="0" y="562.7" width="1708" height="24.65"/>
            </clipPath>
<clipPath id="terminal-2237602389-line-24">
    <rect x="0" y="587.1" width="1708" height="24.65"/>
            </clipPath>
<clipPath id="terminal-2237602389-line-25">
    <rect x="0" y="611.5" width="1708" height="24.65"/>
            </clipPath>
<clipPath id="terminal-2237602389-line-26">
    <rect x="0" y="635.9" width="1708" height="24.65"/>
            </clipPath>
<clipPath id="terminal-2237602389-line-27">
    <rect x="0" y="660.3" width="1708" height="24.65"/>
            </clipPath>
<clipPath id="terminal-2237602389-line-28">
    <rect x="0" y="684.7" width="1708" height="24.65"/>
            </clipPath>
<clipPath id="terminal-2237602389-line-29">
    <rect x="0" y="709.1" width="1708" height="24.65"/>
            </clipPath>
<clipPath id="terminal-2237602389-line-30">
    <rect x="0" y="733.5" width="1708" height="24.65"/>
            </clipPath>
<clipPath id="terminal-2237602389-line-31">
    <rect x="0" y="757.9" width="1708" height="24.65"/>
            </clipPath>
<clipPath id="terminal-2237602389-line-32">
    <rect x="0" y="782.3" width="1708" height="24.65"/>
            </clipPath>
<clipPath id="terminal-2237602389-line-33">
    <rect x="0" y="806.7" width="1708" height="24.65"/>
            </clipPath>
<clipPath id="terminal-2237602389-line-34">
    <rect x="0" y="831.1" width="1708" height="24.65"/>
            </clipPath>
<clipPath id="terminal-2237602389-line-35">
    <rect x="0" y="855.5" width="1708" height="24.65"/>
            </clipPath>
<clipPath id="terminal-2237602389-line-36">
    <rect x="0" y="879.9" width="1708" height="24.65"/>
            </clipPath>
<clipPath id="terminal-2237602389-line-37">
    <rect x="0" y="904.3" width="1708" height="24.65"/>
            </clipPath>
<clipPath id="terminal-2237602389-line-38">
    <rect x="0" y="928.7" width="1708" height="24.65"/>
            </clipPath>
<clipPath id="terminal-2237602389-line-39">
    <rect x="0" y="953.1" width="1708" height="24.65"/>
            </clipPath>
<clipPath id="terminal-2237602389-line-40">
    <rect x="0" y="977.5" width="1708" height="24.65"/>
            </clipPath>
    </defs>

    <rect fill="#292929" stroke="rgba(255,255,255,0.35)" stroke-width="1" x="1" y="1" width="1724" height="1072.8" rx="8"/><text class="terminal-2237602389-title" fill="#c5c8c6" text-anchor="middle" x="862" y="27">Portfolio&#160;Analyst&#160;@&#160;Innerlight&#160;Labs</text>
            <g transform="translate(26,22)">
            <circle cx="0" cy="0" r="7" fill="#ff5f57"/>
            <circle cx="22" cy="0" r="7" fill="#febc2e"/>
            <circle cx="44" cy="0" r="7" fill="#28c840"/>
            </g>
        
    <g transform="translate(9, 41)" clip-path="url(#terminal-2237602389-clip-terminal)">
    <rect fill="#33424e" x="0" y="1.5" width="0" height="24.65" shape-rendering="crispEdges"/><rect fill="#33424e" x="0" y="1.5" width="1708" height="24.65" shape-rendering="crispEdges"/><rect fill="#121212" x="0" y="25.9" width="12.2" height="24.65" shape-rendering="crispEdges"/><rect fill="#121212" x="12.2" y="25.9" width="24.4" height="24.65" shape-rendering="crispEdges"/><rect fill="#121212" x="36.6" y="25.9" width="97.6" height="24.65" shape-rendering="crispEdges"/><rect fill="#121212" x="134.2" y="25.9" width="24.4" height="24.65" shape-rendering="crispEdges"/><rect fill="#121212" x="158.6" y="25.9" width="24.4" height="24.65" shape-rendering="crispEdges"/><rect fill="#121212" x="183" y="25.9" width="85.4" height="24.65" shape-rendering="crispEdges"/><rect fill="#121212" x="268.4" y="25.9" width="24.4" height="24.65" shape-rendering="crispEdges"/><rect fill="#121212" x="292.8" y="25.9" width="24.4" height="24.65" shape-rendering="crispEdges"/><rect fill="#121212" x="317.2" y="25.9" width="122" height="24.65" shape-rendering="crispEdges"/><rect fill="#121212" x="439.2" y="25.9" width="24.4" height="24.65" shape-rendering="crispEdges"/><rect fill="#121212" x="463.6" y="25.9" width="24.4" height="24.65" shape-rendering="crispEdges"/><rect fill="#121212" x="488" y="25.9" width="158.6" height="24.65" shape-rendering="crispEdges"/><rect fill="#121212" x="646.6" y="25.9" width="24.4" height="24.65" shape-rendering="crispEdges"/><rect fill="#121212" x="671" y="25.9" width="24.4" height="24.65" shape-rendering="crispEdges"/><rect fill="#121212" x="695.4" y="25.9" width="195.2" height="24.65" shape-rendering="crispEdges"/><rect fill="#121212" x="890.6" y="25.9" width="24.4" height="24.65" shape-rendering="crispEdges"/><rect fill="#121212" x="915" y="25.9" width="24.4" height="24.65" shape-rendering="crispEdges"/><rect fill="#121212" x="939.4" y="25.9" width="109.8" height="24.65" shape-rendering="crispEdges"/><rect fill="#121212" x="1049.2" y="25.9" width="24.4" height="24.65" shape-rendering="crispEdges"/><rect fill="#121212" x="1073.6" y="25.9" width="24.4" height="24.65" shape-rendering="crispEdges"/><rect fill="#121212" x="1098" y="25.9" width="134.2" height="24.65" shape-rendering="crispEdges"/><rect fill="#121212" x="1232.2" y="25.9" width="24.4" height="24.65" shape-rendering="crispEdges"/><rect fill="#121212" x="1256.6" y="25.9" width="24.4" height="24.65" shape-rendering="crispEdges"/><rect fill="#121212" x="1281" y="25.9" width="134.2" height="24.65" shape-rendering="crispEdges"/><rect fill="#121212" x="1415.2" y="25.9" width="24.4" height="24.65" shape-rendering="crispEdges"/><rect fill="#121212" x="1439.6" y="25.9" width="24.4" height="24.65" shape-rendering="crispEdges"/><rect fill="#121212" x="1464" y="25.9" width="85.4" height="24.65" shape-rendering="crispEdges"/><rect fill="#121212" x="1549.4" y="25.9" width="12.2" height="24.65" shape-rendering="crispEdges"/><rect fill="#0178d4" x="1561.6" y="25.9" width="12.2" height="24.65" shape-rendering="crispEdges"/><rect fill="#0178d4" x="1573.8" y="25.9" width="36.6" height="24.65" shape-rendering="crispEdges"/><rect fill="#0178d4" x="1610.4" y="25.9" width="85.4" height="24.65" shape-rendering="crispEdges"/><rect fill="#0178d4" x="1695.8" y="25.9" width="12.2" height="24.65" shape-rendering="crispEdges"/><rect fill="#121212" x="0" y="50.3" width="1573.8" height="24.65" shape-rendering="crispEdges"/><rect fill="#121212" x="1573.8" y="50.3" width="122" height="24.65" shape-rendering="crispEdges"/><rect fill="#121212" x="1695.8" y="50.3" width="12.2" height="24.65" shape-rendering="crispEdges"/><rect fill="#121212" x="0" y="74.7" width="732" height="24.65" shape-rendering="crispEdges"/><rect fill="#121212" x="732" y="74.7" width="976" height="24.65" shape-rendering="crispEdges"/><rect fill="#121212" x="0" y="99.1" width="878.4" height="24.65" shape-rendering="crispEdges"/><rect fill="#121212" x="878.4" y="99.1" width="829.6" height="24.65" shape-rendering="crispEdges"/><rect fill="#121212" x="0" y="123.5" width="988.2" height="24.65" shape-rendering="crispEdges"/><rect fill="#121212" x="988.2" y="123.5" width="719.8" height="24.65" shape-rendering="crispEdges"/><rect fill="#121212" x="0" y="147.9" width="927.2" height="24.65" shape-rendering="crispEdges"/><rect fill="#121212" x="927.2" y="147.9" width="780.8" height="24.65" shape-rendering="crispEdges"/><rect fill="#121212" x="0" y="172.3" width="1708" height="24.65" shape-rendering="crispEdges"/><rect fill="#121212" x="0" y="196.7" width="1708" height="24.65" shape-rendering="crispEdges"/><rect fill="#121212" x="0" y="221.1" width="1708" height="24.65" shape-rendering="crispEdges"/><rect fill="#121212" x="0" y="245.5" width="1708" height="24.65" shape-rendering="crispEdges"/><rect fill="#121212" x="0" y="269.9" width="1708" height="24.65" shape-rendering="crispEdges"/><rect fill="#121212" x="0" y="294.3" width="1708" height="24.65" shape-rendering="crispEdges"/><rect fill="#121212" x="0" y="318.7" width="1708" height="24.65" shape-rendering="crispEdges"/><rect fill="#121212" x="0" y="343.1" width="1708" height="24.65" shape-rendering="crispEdges"/><rect fill="#121212" x="0" y="367.5" width="1708" height="24.65" shape-rendering="crispEdges"/><rect fill="#121212" x="0" y="391.9" width="1708" height="24.65" shape-rendering="crispEdges"/><rect fill="#121212" x="0" y="416.3" width="1708" height="24.65" shape-rendering="crispEdges"/><rect fill="#121212" x="0" y="440.7" width="1708" height="24.65" shape-rendering="crispEdges"/><rect fill="#121212" x="0" y="465.1" width="1708" height="24.65" shape-rendering="crispEdges"/><rect fill="#121212" x="0" y="489.5" width="1708" height="24.65" shape-rendering="crispEdges"/><rect fill="#121212" x="0" y="513.9" width="1708" height="24.65" shape-rendering="crispEdges"/><rect fill="#121212" x="0" y="538.3" width="1708" height="24.65" shape-rendering="crispEdges"/><rect fill="#121212" x="0" y="562.7" width="1708" height="24.65" shape-rendering="crispEdges"/><rect fill="#121212" x="0" y="587.1" width="1708" height="24.65" shape-rendering="crispEdges"/><rect fill="#121212" x="0" y="611.5" width="1708" height="24.65" shape-rendering="crispEdges"/><rect fill="#121212" x="0" y="635.9" width="1708" height="24.65" shape-rendering="crispEdges"/><rect fill="#121212" x="0" y="660.3" width="1708" height="24.65" shape-rendering="crispEdges"/><rect fill="#121212" x="0" y="684.7" width="1708" height="24.65" shape-rendering="crispEdges"/><rect fill="#121212" x="0" y="709.1" width="1708" height="24.65" shape-rendering="crispEdges"/><rect fill="#121212" x="0" y="733.5" width="1708" height="24.65" shape-rendering="crispEdges"/><rect fill="#121212" x="0" y="757.9" width="1708" height="24.65" shape-rendering="crispEdges"/><rect fill="#121212" x="0" y="782.3" width="1708" height="24.65" shape-rendering="crispEdges"/><rect fill="#121212" x="0" y="806.7" width="1708" height="24.65" shape-rendering="crispEdges"/><rect fill="#121212" x="0" y="831.1" width="1708" height="24.65" shape-rendering="crispEdges"/><rect fill="#121212" x="0" y="855.5" width="1708" height="24.65" shape-rendering="crispEdges"/><rect fill="#121212" x="0" y="879.9" width="1708" height="24.65" shape-rendering="crispEdges"/><rect fill="#121212" x="0" y="904.3" width="1708" height="24.65" shape-rendering="crispEdges"/><rect fill="#121212" x="0" y="928.7" width="1708" height="24.65" shape-rendering="crispEdges"/><rect fill="#121212" x="0" y="953.1" width="1708" height="24.65" shape-rendering="crispEdges"/><rect fill="#121212" x="0" y="977.5" width="1708" height="24.65" shape-rendering="crispEdges"/><rect fill="#242f38" x="0" y="1001.9" width="36.6" height="24.65" shape-rendering="crispEdges"/><rect fill="#242f38" x="36.6" y="1001.9" width="61" height="24.65" shape-rendering="crispEdges"/><rect fill="#242f38" x="97.6" y="1001.9" width="36.6" height="24.65" shape-rendering="crispEdges"/><rect fill="#242f38" x="134.2" y="1001.9" width="97.6" height="24.65" shape-rendering="crispEdges"/><rect fill="#242f38" x="231.8" y="1001.9" width="1329.8" height="24.65" shape-rendering="crispEdges"/><rect fill="#242f38" x="1561.6" y="1001.9" width="12.2" height="24.65" shape-rendering="crispEdges"/><rect fill="#242f38" x="1573.8" y="1001.9" width="24.4" height="24.65" shape-rendering="crispEdges"/><rect fill="#242f38" x="1598.2" y="1001.9" width="97.6" height="24.65" shape-rendering="crispEdges"/><rect fill="#242f38" x="1695.8" y="1001.9" width="12.2" height="24.65" shape-rendering="crispEdges"/>
    <g class="terminal-2237602389-matrix">
    <text class="terminal-2237602389-r2" x="1708" y="20" textLength="12.2" clip-path="url(#terminal-2237602389-line-0)">
</text><text class="terminal-2237602389-r3" x="12.2" y="44.4" textLength="24.4" clip-path="url(#terminal-2237602389-line-1)">F1</text><text class="terminal-2237602389-r4" x="36.6" y="44.4" textLength="97.6" clip-path="url(#terminal-2237602389-line-1)">&#160;Summary</text><text class="terminal-2237602389-r3" x="158.6" y="44.4" textLength="24.4" clip-path="url(#terminal-2237602389-line-1)">F2</text><text class="terminal-2237602389-r4" x="183" y="44.4" textLength="85.4" clip-path="url(#terminal-2237602389-line-1)">&#160;Alerts</text><text class="terminal-2237602389-r3" x="292.8" y="44.4" textLength="24.4" clip-path="url(#terminal-2237602389-line-1)">F3</text><text class="terminal-2237602389-r4" x="317.2" y="44.4" textLength="122" clip-path="url(#terminal-2237602389-line-1)">&#160;Positions</text><text class="terminal-2237602389-r3" x="463.6" y="44.4" textLength="24.4" clip-path="url(#terminal-2237602389-line-1)">F4</text><text class="terminal-2237602389-r4" x="488" y="44.4" textLength="158.6" clip-path="url(#terminal-2237602389-line-1)">&#160;Transactions</text><text class="terminal-2237602389-r3" x="671" y="44.4" textLength="24.4" clip-path="url(#terminal-2237602389-line-1)">F5</text><text class="terminal-2237602389-r4" x="695.4" y="44.4" textLength="195.2" clip-path="url(#terminal-2237602389-line-1)">&#160;Market&#160;&amp;&#160;Events</text><text class="terminal-2237602389-r3" x="915" y="44.4" textLength="24.4" clip-path="url(#terminal-2237602389-line-1)">F6</text><text class="terminal-2237602389-r4" x="939.4" y="44.4" textLength="109.8" clip-path="url(#terminal-2237602389-line-1)">&#160;Congress</text><text class="terminal-2237602389-r3" x="1073.6" y="44.4" textLength="24.4" clip-path="url(#terminal-2237602389-line-1)">F7</text><text class="terminal-2237602389-r4" x="1098" y="44.4" textLength="134.2" clip-path="url(#terminal-2237602389-line-1)">&#160;Watchlists</text><text class="terminal-2237602389-r3" x="1256.6" y="44.4" textLength="24.4" clip-path="url(#terminal-2237602389-line-1)">F8</text><text class="terminal-2237602389-r4" x="1281" y="44.4" textLength="134.2" clip-path="url(#terminal-2237602389-line-1)">&#160;Strategies</text><text class="terminal-2237602389-r3" x="1439.6" y="44.4" textLength="24.4" clip-path="url(#terminal-2237602389-line-1)">F9</text><text class="terminal-2237602389-r4" x="1464" y="44.4" textLength="85.4" clip-path="url(#terminal-2237602389-line-1)">&#160;Crypto</text><text class="terminal-2237602389-r5" x="1573.8" y="44.4" textLength="36.6" clip-path="url(#terminal-2237602389-line-1)">F10</text><text class="terminal-2237602389-r6" x="1610.4" y="44.4" textLength="85.4" clip-path="url(#terminal-2237602389-line-1)">&#160;Issues</text><text class="terminal-2237602389-r2" x="1708" y="44.4" textLength="12.2" clip-path="url(#terminal-2237602389-line-1)">
</text><text class="terminal-2237602389-r7" x="0" y="68.8" textLength="1573.8" clip-path="url(#terminal-2237602389-line-2)">━━━━━━━━━━━━━━━━━━━━━━━━━━━━━━━━━━━━━━━━━━━━━━━━━━━━━━━━━━━━━━━━━━━━━━━━━━━━━━━━━━━━━━━━━━━━━━━━━━━━━━━━━━━━━━━━━━━━━━━━━━━━━━━━╸</text><text class="terminal-2237602389-r8" x="1573.8" y="68.8" textLength="122" clip-path="url(#terminal-2237602389-line-2)">━━━━━━━━━━</text><text class="terminal-2237602389-r7" x="1695.8" y="68.8" textLength="12.2" clip-path="url(#terminal-2237602389-line-2)">╺</text><text class="terminal-2237602389-r2" x="1708" y="68.8" textLength="12.2" clip-path="url(#terminal-2237602389-line-2)">
</text><text class="terminal-2237602389-r9" x="0" y="93.2" textLength="732" clip-path="url(#terminal-2237602389-line-3)">──&#160;Issues&#160;──────────────────────────────────────────────────</text><text class="terminal-2237602389-r2" x="1708" y="93.2" textLength="12.2" clip-path="url(#terminal-2237602389-line-3)">
</text><text class="terminal-2237602389-r9" x="0" y="117.6" textLength="878.4" clip-path="url(#terminal-2237602389-line-4)">&#160;&#160;•&#160;broker_sync:&#160;Schwab&#160;API&#160;rate&#160;limit&#160;hit;&#160;backing&#160;off&#160;30s&#160;before&#160;retry</text><text class="terminal-2237602389-r2" x="1708" y="117.6" textLength="12.2" clip-path="url(#terminal-2237602389-line-4)">
</text><text class="terminal-2237602389-r9" x="0" y="142" textLength="988.2" clip-path="url(#terminal-2237602389-line-5)">&#160;&#160;•&#160;market_data:&#160;AlphaVantage&#160;daily&#160;quota&#160;exhausted&#160;(25/25);&#160;resumes&#160;at&#160;00:00&#160;UTC</text><text class="terminal-2237602389-r2" x="1708" y="142" textLength="12.2" clip-path="url(#terminal-2237602389-line-5)">
</text><text class="terminal-2237602389-r9" x="0" y="166.4" textLength="927.2" clip-path="url(#terminal-2237602389-line-6)">&#160;&#160;•&#160;congress_sync:&#160;2&#160;disclosure&#160;PDFs&#160;failed&#160;to&#160;parse&#160;—&#160;see&#160;logs/congress.log</text><text class="terminal-2237602389-r2" x="1708" y="166.4" textLength="12.2" clip-path="url(#terminal-2237602389-line-6)">
</text><text class="terminal-2237602389-r2" x="1708" y="190.8" textLength="12.2" clip-path="url(#terminal-2237602389-line-7)">
</text><text class="terminal-2237602389-r2" x="1708" y="215.2" textLength="12.2" clip-path="url(#terminal-2237602389-line-8)">
</text><text class="terminal-2237602389-r2" x="1708" y="239.6" textLength="12.2" clip-path="url(#terminal-2237602389-line-9)">
</text><text class="terminal-2237602389-r2" x="1708" y="264" textLength="12.2" clip-path="url(#terminal-2237602389-line-10)">
</text><text class="terminal-2237602389-r2" x="1708" y="288.4" textLength="12.2" clip-path="url(#terminal-2237602389-line-11)">
</text><text class="terminal-2237602389-r2" x="1708" y="312.8" textLength="12.2" clip-path="url(#terminal-2237602389-line-12)">
</text><text class="terminal-2237602389-r2" x="1708" y="337.2" textLength="12.2" clip-path="url(#terminal-2237602389-line-13)">
</text><text class="terminal-2237602389-r2" x="1708" y="361.6" textLength="12.2" clip-path="url(#terminal-2237602389-line-14)">
</text><text class="terminal-2237602389-r2" x="1708" y="386" textLength="12.2" clip-path="url(#terminal-2237602389-line-15)">
</text><text class="terminal-2237602389-r2" x="1708" y="410.4" textLength="12.2" clip-path="url(#terminal-2237602389-line-16)">
</text><text class="terminal-2237602389-r2" x="1708" y="434.8" textLength="12.2" clip-path="url(#terminal-2237602389-line-17)">
</text><text class="terminal-2237602389-r2" x="1708" y="459.2" textLength="12.2" clip-path="url(#terminal-2237602389-line-18)">
</text><text class="terminal-2237602389-r2" x="1708" y="483.6" textLength="12.2" clip-path="url(#terminal-2237602389-line-19)">
</text><text class="terminal-2237602389-r2" x="1708" y="508" textLength="12.2" clip-path="url(#terminal-2237602389-line-20)">
</text><text class="terminal-2237602389-r2" x="1708" y="532.4" textLength="12.2" clip-path="url(#terminal-2237602389-line-21)">
</text><text class="terminal-2237602389-r2" x="1708" y="556.8" textLength="12.2" clip-path="url(#terminal-2237602389-line-22)">
</text><text class="terminal-2237602389-r2" x="1708" y="581.2" textLength="12.2" clip-path="url(#terminal-2237602389-line-23)">
</text><text class="terminal-2237602389-r2" x="1708" y="605.6" textLength="12.2" clip-path="url(#terminal-2237602389-line-24)">
</text><text class="terminal-2237602389-r2" x="1708" y="630" textLength="12.2" clip-path="url(#terminal-2237602389-line-25)">
</text><text class="terminal-2237602389-r2" x="1708" y="654.4" textLength="12.2" clip-path="url(#terminal-2237602389-line-26)">
</text><text class="terminal-2237602389-r2" x="1708" y="678.8" textLength="12.2" clip-path="url(#terminal-2237602389-line-27)">
</text><text class="terminal-2237602389-r2" x="1708" y="703.2" textLength="12.2" clip-path="url(#terminal-2237602389-line-28)">
</text><text class="terminal-2237602389-r2" x="1708" y="727.6" textLength="12.2" clip-path="url(#terminal-2237602389-line-29)">
</text><text class="terminal-2237602389-r2" x="1708" y="752" textLength="12.2" clip-path="url(#terminal-2237602389-line-30)">
</text><text class="terminal-2237602389-r2" x="1708" y="776.4" textLength="12.2" clip-path="url(#terminal-2237602389-line-31)">
</text><text class="terminal-2237602389-r2" x="1708" y="800.8" textLength="12.2" clip-path="url(#terminal-2237602389-line-32)">
</text><text class="terminal-2237602389-r2" x="1708" y="825.2" textLength="12.2" clip-path="url(#terminal-2237602389-line-33)">
</text><text class="terminal-2237602389-r2" x="1708" y="849.6" textLength="12.2" clip-path="url(#terminal-2237602389-line-34)">
</text><text class="terminal-2237602389-r2" x="1708" y="874" textLength="12.2" clip-path="url(#terminal-2237602389-line-35)">
</text><text class="terminal-2237602389-r2" x="1708" y="898.4" textLength="12.2" clip-path="url(#terminal-2237602389-line-36)">
</text><text class="terminal-2237602389-r2" x="1708" y="922.8" textLength="12.2" clip-path="url(#terminal-2237602389-line-37)">
</text><text class="terminal-2237602389-r2" x="1708" y="947.2" textLength="12.2" clip-path="url(#terminal-2237602389-line-38)">
</text><text class="terminal-2237602389-r2" x="1708" y="971.6" textLength="12.2" clip-path="url(#terminal-2237602389-line-39)">
</text><text class="terminal-2237602389-r2" x="1708" y="996" textLength="12.2" clip-path="url(#terminal-2237602389-line-40)">
</text><text class="terminal-2237602389-r10" x="0" y="1020.4" textLength="36.6" clip-path="url(#terminal-2237602389-line-41)">&#160;q&#160;</text><text class="terminal-2237602389-r9" x="36.6" y="1020.4" textLength="61" clip-path="url(#terminal-2237602389-line-41)">Quit&#160;</text><text class="terminal-2237602389-r10" x="97.6" y="1020.4" textLength="36.6" clip-path="url(#terminal-2237602389-line-41)">&#160;r&#160;</text><text class="terminal-2237602389-r9" x="134.2" y="1020.4" textLength="97.6" clip-path="url(#terminal-2237602389-line-41)">Refresh&#160;</text><text class="terminal-2237602389-r11" x="1561.6" y="1020.4" textLength="12.2" clip-path="url(#terminal-2237602389-line-41)">▏</text><text class="terminal-2237602389-r10" x="1573.8" y="1020.4" textLength="24.4" clip-path="url(#terminal-2237602389-line-41)">^p</text><text class="terminal-2237602389-r9" x="1598.2" y="1020.4" textLength="97.6" clip-path="url(#terminal-2237602389-line-41)">&#160;palette</text>
    </g>
    </g>
</svg>
