<svg class="rich-terminal" viewBox="0 0 1726 1074.8" xmlns="http://www.w3.org/2000/svg">
    <!-- Generated with Rich https://www.textualize.io -->
    <style>

    @font-face {
        font-family: "Fira Code";
        src: local("FiraCode-Regular"),
                url("https://cdnjs.cloudflare.com/ajax/libs/firacode/6.2.0/woff2/FiraCode-Regular.woff2") format("woff2"),
                url("https://cdnjs.cloudflare.com/ajax/libs/firacode/6.2.0/woff/FiraCode-Regular.woff") format("woff");
        font-style: normal;
        font-weight: 400;
    }
    @font-face {
        font-family: "Fira Code";
        src: local("FiraCode-Bold"),
                url("https://cdnjs.cloudflare.com/ajax/libs/firacode/6.2.0/woff2/FiraCode-Bold.woff2") format("woff2"),
                url("https://cdnjs.cloudflare.com/ajax/libs/firacode/6.2.0/woff/FiraCode-Bold.woff") format("woff");
        font-style: bold;
        font-weight: 700;
    }

    .terminal-4286010863-matrix {
        font-family: Fira Code, monospace;
        font-size: 20px;
        line-height: 24.4px;
        font-variant-east-asian: full-width;
    }

    .terminal-4286010863-title {
        font-size: 18px;
        font-weight: bold;
        font-family: arial;
    }

    .terminal-4286010863-r1 { fill: #e4e6e7 }
.terminal-4286010863-r2 { fill: #c5c8c6 }
.terminal-4286010863-r3 { fill: #fea62b }
.terminal-4286010863-r4 { fill: #797979 }
.terminal-4286010863-r5 { fill: #fea62b;font-weight: bold }
.terminal-4286010863-r6 { fill: #e0e0e0;font-weight: bold }
.terminal-4286010863-r7 { fill: #262626 }
.terminal-4286010863-r8 { fill: #0178d4 }
.terminal-4286010863-r9 { fill: #ddedf9;font-weight: bold }
.terminal-4286010863-r10 { fill: #e0e0e0 }
.terminal-4286010863-r11 { fill: #a1a1a1 }
.terminal-4286010863-r12 { fill: #9d9d9d }
.terminal-4286010863-r13 { fill: #ffa62b;font-weight: bold }
.terminal-4286010863-r14 { fill: #495259 }
    </style>

    <defs>
    <clipPath id="terminal-4286010863-clip-terminal">
      <rect x="0" y="0" width="1707.0" height="1023.8" />
    </clipPath>
    <clipPath id="terminal-4286010863-line-0">
    <rect x="0" y="1.5" width="1708" height="24.65"/>
            </clipPath>
<clipPath id="terminal-4286010863-line-1">
    <rect x="0" y="25.9" width="1708" height="24.65"/>
            </clipPath>
<clipPath id="terminal-4286010863-line-2">
    <rect x="0" y="50.3" width="1708" height="24.65"/>
            </clipPath>
<clipPath id="terminal-4286010863-line-3">
    <rect x="0" y="74.7" width="1708" height="24.65"/>
            </clipPath>
<clipPath id="terminal-4286010863-line-4">
    <rect x="0" y="99.1" width="1708" height="24.65"/>
            </clipPath>
<clipPath id="terminal-4286010863-line-5">
    <rect x="0" y="123.5" width="1708" height="24.65"/>
            </clipPath>
<clipPath id="terminal-4286010863-line-6">
    <rect x="0" y="147.9" width="1708" height="24.65"/>
            </clipPath>
<clipPath id="terminal-4286010863-line-7">
    <rect x="0" y="172.3" width="1708" height="24.65"/>
            </clipPath>
<clipPath id="terminal-4286010863-line-8">
    <rect x="0" y="196.7" width="1708" height="24.65"/>
            </clipPath>
<clipPath id="terminal-4286010863-line-9">
    <rect x="0" y="221.1" width="1708" height="24.65"/>
            </clipPath>
<clipPath id="terminal-4286010863-line-10">
    <rect x="0" y="245.5" width="1708" height="24.65"/>
            </clipPath>
<clipPath id="terminal-4286010863-line-11">
    <rect x="0" y="269.9" width="1708" height="24.65"/>
            </clipPath>
<clipPath id="terminal-4286010863-line-12">
    <rect x="0" y="294.3" width="1708" height="24.65"/>
            </clipPath>
<clipPath id="terminal-4286010863-line-13">
    <rect x="0" y="318.7" width="1708" height="24.65"/>
            </clipPath>
<clipPath id="terminal-4286010863-line-14">
    <rect x="0" y="343.1" width="1708" height="24.65"/>
            </clipPath>
<clipPath id="terminal-4286010863-line-15">
    <rect x="0" y="367.5" width="1708" height="24.65"/>
            </clipPath>
<clipPath id="terminal-4286010863-line-16">
    <rect x="0" y="391.9" width="1708" height="24.65"/>
            </clipPath>
<clipPath id="terminal-4286010863-line-17">
    <rect x="0" y="416.3" width="1708" height="24.65"/>
            </clipPath>
<clipPath id="terminal-4286010863-line-18">
    <rect x="0" y="440.7" width="1708" height="24.65"/>
            </clipPath>
<clipPath id="terminal-4286010863-line-19">
    <rect x="0" y="465.1" width="1708" height="24.65"/>
            </clipPath>
<clipPath id="terminal-4286010863-line-20">
    <rect x="0" y="489.5" width="1708" height="24.65"/>
            </clipPath>
<clipPath id="terminal-4286010863-line-21">
    <rect x="0" y="513.9" width="1708" height="24.65"/>
            </clipPath>
<clipPath id="terminal-4286010863-line-22">
    <rect x="0" y="538.3" width="1708" height="24.65"/>
            </clipPath>
<clipPath id="terminal-4286010863-line-23">
    <rect x="0" y="562.7" width="1708" height="24.65"/>
            </clipPath>
<clipPath id="terminal-4286010863-line-24">
    <rect x="0" y="587.1" width="1708" height="24.65"/>
            </clipPath>
<clipPath id="terminal-4286010863-line-25">
    <rect x="0" y="611.5" width="1708" height="24.65"/>
            </clipPath>
<clipPath id="terminal-4286010863-line-26">
    <rect x="0" y="635.9" width="1708" height="24.65"/>
            </clipPath>
<clipPath id="terminal-4286010863-line-27">
    <rect x="0" y="660.3" width="1708" height="24.65"/>
            </clipPath>
<clipPath id="terminal-4286010863-line-28">
    <rect x="0" y="684.7" width="1708" height="24.65"/>
            </clipPath>
<clipPath id="terminal-4286010863-line-29">
    <rect x="0" y="709.1" width="1708" height="24.65"/>
            </clipPath>
<clipPath id="terminal-4286010863-line-30">
    <rect x="0" y="733.5" width="1708" height="24.65"/>
            </clipPath>
<clipPath id="terminal-4286010863-line-31">
    <rect x="0" y="757.9" width="1708" height="24.65"/>
            </clipPath>
<clipPath id="terminal-4286010863-line-32">
    <rect x="0" y="782.3" width="1708" height="24.65"/>
            </clipPath>
<clipPath id="terminal-4286010863-line-33">
    <rect x="0" y="806.7" width="1708" height="24.65"/>
            </clipPath>
<clipPath id="terminal-4286010863-line-34">
    <rect x="0" y="831.1" width="1708" height="24.65"/>
            </clipPath>
<clipPath id="terminal-4286010863-line-35">
    <rect x="0" y="855.5" width="1708" height="24.65"/>
            </clipPath>
<clipPath id="terminal-4286010863-line-36">
    <rect x="0" y="879.9" width="1708" height="24.65"/>
            </clipPath>
<clipPath id="terminal-4286010863-line-37">
    <rect x="0" y="904.3" width="1708" height="24.65"/>
            </clipPath>
<clipPath id="terminal-4286010863-line-38">
    <rect x="0" y="928.7" width="1708" height="24.65"/>
            </clipPath>
<clipPath id="terminal-4286010863-line-39">
    <rect x="0" y="953.1" width="1708" height="24.65"/>
            </clipPath>
<clipPath id="terminal-4286010863-line-40">
    <rect x="0" y="977.5" width="1708" height="24.65"/>
            </clipPath>
    </defs>

    <rect fill="#292929" stroke="rgba(255,255,255,0.35)" stroke-width="1" x="1" y="1" width="1724" height="1072.8" rx="8"/><text class="terminal-4286010863-title" fill="#c5c8c6" text-anchor="middle" x="862" y="27">Portfolio&#160;Analyst&#160;@&#160;Innerlight&#160;Labs</text>
            <g transform="translate(26,22)">
            <circle cx="0" cy="0" r="7" fill="#ff5f57"/>
            <circle cx="22" cy="0" r="7" fill="#febc2e"/>
            <circle cx="44" cy="0" r="7" fill="#28c840"/>
            </g>
        
    <g transform="translate(9, 41)" clip-path="url(#terminal-4286010863-clip-terminal)">
    <rect fill="#33424e" x="0" y="1.5" width="0" height="24.65" shape-rendering="crispEdges"/><rect fill="#33424e" x="0" y="1.5" width="1708" height="24.65" shape-rendering="crispEdges"/><rect fill="#121212" x="0" y="25.9" width="12.2" height="24.65" shape-rendering="crispEdges"/><rect fill="#121212" x="12.2" y="25.9" width="24.4" height="24.65" shape-rendering="crispEdges"/><rect fill="#121212" x="36.6" y="25.9" width="97.6" height="24.65" shape-rendering="crispEdges"/><rect fill="#121212" x="134.2" y="25.9" width="24.4" height="24.65" shape-rendering="crispEdges"/><rect fill="#121212" x="158.6" y="25.9" width="24.4" height="24.65" shape-rendering="crispEdges"/><rect fill="#121212" x="183" y="25.9" width="85.4" height="24.65" shape-rendering="crispEdges"/><rect fill="#121212" x="268.4" y="25.9" width="24.4" height="24.65" shape-rendering="crispEdges"/><rect fill="#121212" x="292.8" y="25.9" width="24.4" height="24.65" shape-rendering="crispEdges"/><rect fill="#121212" x="317.2" y="25.9" width="122" height="24.65" shape-rendering="crispEdges"/><rect fill="#121212" x="439.2" y="25.9" width="24.4" height="24.65" shape-rendering="crispEdges"/><rect fill="#121212" x="463.6" y="25.9" width="24.4" height="24.65" shape-rendering="crispEdges"/><rect fill="#121212" x="488" y="25.9" width="158.6" height="24.65" shape-rendering="crispEdges"/><rect fill="#121212" x="646.6" y="25.9" width="24.4" height="24.65" shape-rendering="crispEdges"/><rect fill="#121212" x="671" y="25.9" width="24.4" height="24.65" shape-rendering="crispEdges"/><rect fill="#121212" x="695.4" y="25.9" width="195.2" height="24.65" shape-rendering="crispEdges"/><rect fill="#121212" x="890.6" y="25.9" width="24.4" height="24.65" shape-rendering="crispEdges"/><rect fill="#121212" x="915" y="25.9" width="24.4" height="24.65" shape-rendering="crispEdges"/><rect fill="#121212" x="939.4" y="25.9" width="109.8" height="24.65" shape-rendering="crispEdges"/><rect fill="#121212" x="1049.2" y="25.9" width="24.4" height="24.65" shape-rendering="crispEdges"/><rect fill="#121212" x="1073.6" y="25.9" width="24.4" height="24.65" shape-rendering="crispEdges"/><rect fill="#121212" x="1098" y="25.9" width="134.2" height="24.65" shape-rendering="crispEdges"/><rect fill="#121212" x="1232.2" y="25.9" width="24.4" height="24.65" shape-rendering="crispEdges"/><rect fill="#121212" x="1256.6" y="25.9" width="24.4" height="24.65" shape-rendering="crispEdges"/><rect fill="#121212" x="1281" y="25.9" width="134.2" height="24.65" shape-rendering="crispEdges"/><rect fill="#121212" x="1415.2" y="25.9" width="24.4" height="24.65" shape-rendering="crispEdges"/><rect fill="#121212" x="1439.6" y="25.9" width="24.4" height="24.65" shape-rendering="crispEdges"/><rect fill="#121212" x="1464" y="25.9" width="85.4" height="24.65" shape-rendering="crispEdges"/><rect fill="#121212" x="1549.4" y="25.9" width="24.4" height="24.65" shape-rendering="crispEdges"/><rect fill="#121212" x="1573.8" y="25.9" width="36.6" height="24.65" shape-rendering="crispEdges"/><rect fill="#121212" x="1610.4" y="25.9" width="85.4" height="24.65" shape-rendering="crispEdges"/><rect fill="#121212" x="1695.8" y="25.9" width="12.2" height="24.65" shape-rendering="crispEdges"/><rect fill="#121212" x="0" y="50.3" width="1256.6" height="24.65" shape-rendering="crispEdges"/><rect fill="#121212" x="1256.6" y="50.3" width="158.6" height="24.65" shape-rendering="crispEdges"/><rect fill="#121212" x="1415.2" y="50.3" width="292.8" height="24.65" shape-rendering="crispEdges"/><rect fill="#2d3740" x="0" y="74.7" width="451.4" height="24.65" shape-rendering="crispEdges"/><rect fill="#2d3740" x="451.4" y="74.7" width="707.6" height="24.65" shape-rendering="crispEdges"/><rect fill="#2d3740" x="1159" y="74.7" width="292.8" height="24.65" shape-rendering="crispEdges"/><rect fill="#2d3740" x="1451.8" y="74.7" width="97.6" height="24.65" shape-rendering="crispEdges"/><rect fill="#2d3740" x="1549.4" y="74.7" width="158.6" height="24.65" shape-rendering="crispEdges"/><rect fill="#0178d4" x="0" y="99.1" width="451.4" height="24.65" shape-rendering="crispEdges"/><rect fill="#0178d4" x="451.4" y="99.1" width="707.6" height="24.65" shape-rendering="crispEdges"/><rect fill="#0178d4" x="1159" y="99.1" width="292.8" height="24.65" shape-rendering="crispEdges"/><rect fill="#0178d4" x="1451.8" y="99.1" width="97.6" height="24.65" shape-rendering="crispEdges"/><rect fill="#0178d4" x="1549.4" y="99.1" width="158.6" height="24.65" shape-rendering="crispEdges"/><rect fill="#272727" x="0" y="123.5" width="36.6" height="24.65" shape-rendering="crispEdges"/><rect fill="#272727" x="36.6" y="123.5" width="231.8" height="24.65" shape-rendering="crispEdges"/><rect fill="#272727" x="268.4" y="123.5" width="183" height="24.65" shape-rendering="crispEdges"/><rect fill="#272727" x="451.4" y="123.5" width="707.6" height="24.65" shape-rendering="crispEdges"/><rect fill="#272727" x="1159" y="123.5" width="292.8" height="24.65" shape-rendering="crispEdges"/><rect fill="#272727" x="1451.8" y="123.5" width="97.6" height="24.65" shape-rendering="crispEdges"/><rect fill="#272727" x="1549.4" y="123.5" width="158.6" height="24.65" shape-rendering="crispEdges"/><rect fill="#1c1c1c" x="0" y="147.9" width="36.6" height="24.65" shape-rendering="crispEdges"/><rect fill="#1c1c1c" x="36.6" y="147.9" width="219.6" height="24.65" shape-rendering="crispEdges"/><rect fill="#1c1c1c" x="256.2" y="147.9" width="195.2" height="24.65" shape-rendering="crispEdges"/><rect fill="#1c1c1c" x="451.4" y="147.9" width="707.6" height="24.65" shape-rendering="crispEdges"/><rect fill="#1c1c1c" x="1159" y="147.9" width="292.8" height="24.65" shape-rendering="crispEdges"/><rect fill="#1c1c1c" x="1451.8" y="147.9" width="97.6" height="24.65" shape-rendering="crispEdges"/><rect fill="#1c1c1c" x="1549.4" y="147.9" width="158.6" height="24.65" shape-rendering="crispEdges"/><rect fill="#272727" x="0" y="172.3" width="36.6" height="24.65" shape-rendering="crispEdges"/><rect fill="#272727" x="36.6" y="172.3" width="158.6" height="24.65" shape-rendering="crispEdges"/><rect fill="#272727" x="195.2" y="172.3" width="256.2" height="24.65" shape-rendering="crispEdges"/><rect fill="#272727" x="451.4" y="172.3" width="707.6" height="24.65" shape-rendering="crispEdges"/><rect fill="#272727" x="1159" y="172.3" width="292.8" height="24.65" shape-rendering="crispEdges"/><rect fill="#272727" x="1451.8" y="172.3" width="97.6" height="24.65" shape-rendering="crispEdges"/><rect fill="#272727" x="1549.4" y="172.3" width="158.6" height="24.65" shape-rendering="crispEdges"/><rect fill="#1c1c1c" x="0" y="196.7" width="36.6" height="24.65" shape-rendering="crispEdges"/><rect fill="#1c1c1c" x="36.6" y="196.7" width="219.6" height="24.65" shape-rendering="crispEdges"/><rect fill="#1c1c1c" x="256.2" y="196.7" width="195.2" height="24.65" shape-rendering="crispEdges"/><rect fill="#1c1c1c" x="451.4" y="196.7" width="707.6" height="24.65" shape-rendering="crispEdges"/><rect fill="#1c1c1c" x="1159" y="196.7" width="292.8" height="24.65" shape-rendering="crispEdges"/><rect fill="#1c1c1c" x="1451.8" y="196.7" width="97.6" height="24.65" shape-rendering="crispEdges"/><rect fill="#1c1c1c" x="1549.4" y="196.7" width="158.6" height="24.65" shape-rendering="crispEdges"/><rect fill="#272727" x="0" y="221.1" width="36.6" height="24.65" shape-rendering="crispEdges"/><rect fill="#272727" x="36.6" y="221.1" width="134.2" height="24.65" shape-rendering="crispEdges"/><rect fill="#272727" x="170.8" y="221.1" width="280.6" height="24.65" shape-rendering="crispEdges"/><rect fill="#272727" x="451.4" y="221.1" width="707.6" height="24.65" shape-rendering="crispEdges"/><rect fill="#272727" x="1159" y="221.1" width="292.8" height="24.65" shape-rendering="crispEdges"/><rect fill="#272727" x="1451.8" y="221.1" width="97.6" height="24.65" shape-rendering="crispEdges"/><rect fill="#272727" x="1549.4" y="221.1" width="158.6" height="24.65" shape-rendering="crispEdges"/><rect fill="#1c1c1c" x="0" y="245.5" width="36.6" height="24.65" shape-rendering="crispEdges"/><rect fill="#1c1c1c" x="36.6" y="245.5" width="195.2" height="24.65" shape-rendering="crispEdges"/><rect fill="#1c1c1c" x="231.8" y="245.5" width="219.6" height="24.65" shape-rendering="crispEdges"/><rect fill="#1c1c1c" x="451.4" y="245.5" width="707.6" height="24.65" shape-rendering="crispEdges"/><rect fill="#1c1c1c" x="1159" y="245.5" width="292.8" height="24.65" shape-rendering="crispEdges"/><rect fill="#1c1c1c" x="1451.8" y="245.5" width="97.6" height="24.65" shape-rendering="crispEdges"/><rect fill="#1c1c1c" x="1549.4" y="245.5" width="158.6" height="24.65" shape-rendering="crispEdges"/><rect fill="#272727" x="0" y="269.9" width="36.6" height="24.65" shape-rendering="crispEdges"/><rect fill="#272727" x="36.6" y="269.9" width="329.4" height="24.65" shape-rendering="crispEdges"/><rect fill="#272727" x="366" y="269.9" width="85.4" height="24.65" shape-rendering="crispEdges"/><rect fill="#272727" x="451.4" y="269.9" width="12.2" height="24.65" shape-rendering="crispEdges"/><rect fill="#272727" x="463.6" y="269.9" width="97.6" height="24.65" shape-rendering="crispEdges"/><rect fill="#272727" x="561.2" y="269.9" width="597.8" height="24.65" shape-rendering="crispEdges"/><rect fill="#272727" x="1159" y="269.9" width="292.8" height="24.65" shape-rendering="crispEdges"/><rect fill="#272727" x="1451.8" y="269.9" width="97.6" height="24.65" shape-rendering="crispEdges"/><rect fill="#272727" x="1549.4" y="269.9" width="158.6" height="24.65" shape-rendering="crispEdges"/><rect fill="#1c1c1c" x="0" y="294.3" width="36.6" height="24.65" shape-rendering="crispEdges"/><rect fill="#1c1c1c" x="36.6" y="294.3" width="402.6" height="24.65" shape-rendering="crispEdges"/><rect fill="#1c1c1c" x="439.2" y="294.3" width="12.2" height="24.65" shape-rendering="crispEdges"/><rect fill="#1c1c1c" x="451.4" y="294.3" width="12.2" height="24.65" shape-rendering="crispEdges"/><rect fill="#1c1c1c" x="463.6" y="294.3" width="97.6" height="24.65" shape-rendering="crispEdges"/><rect fill="#1c1c1c" x="561.2" y="294.3" width="597.8" height="24.65" shape-rendering="crispEdges"/><rect fill="#1c1c1c" x="1159" y="294.3" width="292.8" height="24.65" shape-rendering="crispEdges"/><rect fill="#1c1c1c" x="1451.8" y="294.3" width="97.6" height="24.65" shape-rendering="crispEdges"/><rect fill="#1c1c1c" x="1549.4" y="294.3" width="158.6" height="24.65" shape-rendering="crispEdges"/><rect fill="#272727" x="0" y="318.7" width="36.6" height="24.65" shape-rendering="crispEdges"/><rect fill="#272727" x="36.6" y="318.7" width="317.2" height="24.65" shape-rendering="crispEdges"/><rect fill="#272727" x="353.8" y="318.7" width="97.6" height="24.65" shape-rendering="crispEdges"/><rect fill="#272727" x="451.4" y="318.7" width="12.2" height="24.65" shape-rendering="crispEdges"/><rect fill="#272727" x="463.6" y="318.7" width="97.6" height="24.65" shape-rendering="crispEdges"/><rect fill="#272727" x="561.2" y="318.7" width="597.8" height="24.65" shape-rendering="crispEdges"/><rect fill="#272727" x="1159" y="318.7" width="292.8" height="24.65" shape-rendering="crispEdges"/><rect fill="#272727" x="1451.8" y="318.7" width="97.6" height="24.65" shape-rendering="crispEdges"/><rect fill="#272727" x="1549.4" y="318.7" width="158.6" height="24.65" shape-rendering="crispEdges"/><rect fill="#272727" x="0" y="343.1" width="1708" height="24.65" shape-rendering="crispEdges"/><rect fill="#272727" x="0" y="367.5" width="1708" height="24.65" shape-rendering="crispEdges"/><rect fill="#272727" x="0" y="391.9" width="1708" height="24.65" shape-rendering="crispEdges"/><rect fill="#272727" x="0" y="416.3" width="1708" height="24.65" shape-rendering="crispEdges"/><rect fill="#272727" x="0" y="440.7" width="1708" height="24.65" shape-rendering="crispEdges"/><rect fill="#272727" x="0" y="465.1" width="1708" height="24.65" shape-rendering="crispEdges"/><rect fill="#272727" x="0" y="489.5" width="1708" height="24.65" shape-rendering="crispEdges"/><rect fill="#272727" x="0" y="513.9" width="1708" height="24.65" shape-rendering="crispEdges"/><rect fill="#272727" x="0" y="538.3" width="1708" height="24.65" shape-rendering="crispEdges"/><rect fill="#272727" x="0" y="562.7" width="1708" height="24.65" shape-rendering="crispEdges"/><rect fill="#272727" x="0" y="587.1" width="1708" height="24.65" shape-rendering="crispEdges"/><rect fill="#272727" x="0" y="611.5" width="1708" height="24.65" shape-rendering="crispEdges"/><rect fill="#272727" x="0" y="635.9" width="1708" height="24.65" shape-rendering="crispEdges"/><rect fill="#272727" x="0" y="660.3" width="1708" height="24.65" shape-rendering="crispEdges"/><rect fill="#272727" x="0" y="684.7" width="1708" height="24.65" shape-rendering="crispEdges"/><rect fill="#272727" x="0" y="709.1" width="1708" height="24.65" shape-rendering="crispEdges"/><rect fill="#272727" x="0" y="733.5" width="1708" height="24.65" shape-rendering="crispEdges"/><rect fill="#272727" x="0" y="757.9" width="1708" height="24.65" shape-rendering="crispEdges"/><rect fill="#272727" x="0" y="782.3" width="1708" height="24.65" shape-rendering="crispEdges"/><rect fill="#272727" x="0" y="806.7" width="1708" height="24.65" shape-rendering="crispEdges"/><rect fill="#272727" x="0" y="831.1" width="1708" height="24.65" shape-rendering="crispEdges"/><rect fill="#272727" x="0" y="855.5" width="1708" height="24.65" shape-rendering="crispEdges"/><rect fill="#272727" x="0" y="879.9" width="1708" height="24.65" shape-rendering="crispEdges"/><rect fill="#272727" x="0" y="904.3" width="1708" height="24.65" shape-rendering="crispEdges"/><rect fill="#272727" x="0" y="928.7" width="1708" height="24.65" shape-rendering="crispEdges"/><rect fill="#272727" x="0" y="953.1" width="1708" height="24.65" shape-rendering="crispEdges"/><rect fill="#272727" x="0" y="977.5" width="1708" height="24.65" shape-rendering="crispEdges"/><rect fill="#242f38" x="0" y="1001.9" width="36.6" height="24.65" shape-rendering="crispEdges"/><rect fill="#242f38" x="36.6" y="1001.9" width="158.6" height="24.65" shape-rendering="crispEdges"/><rect fill="#242f38" x="195.2" y="1001.9" width="36.6" height="24.65" shape-rendering="crispEdges"/><rect fill="#242f38" x="231.8" y="1001.9" width="158.6" height="24.65" shape-rendering="crispEdges"/><rect fill="#242f38" x="390.4" y="1001.9" width="36.6" height="24.65" shape-rendering="crispEdges"/><rect fill="#242f38" x="427" y="1001.9" width="170.8" height="24.65" shape-rendering="crispEdges"/><rect fill="#242f38" x="597.8" y="1001.9" width="36.6" height="24.65" shape-rendering="crispEdges"/><rect fill="#242f38" x="634.4" y="1001.9" width="170.8" height="24.65" shape-rendering="crispEdges"/><rect fill="#242f38" x="805.2" y="1001.9" width="36.6" height="24.65" shape-rendering="crispEdges"/><rect fill="#242f38" x="841.8" y="1001.9" width="85.4" height="24.65" shape-rendering="crispEdges"/><rect fill="#242f38" x="927.2" y="1001.9" width="36.6" height="24.65" shape-rendering="crispEdges"/><rect fill="#242f38" x="963.8" y="1001.9" width="207.4" height="24.65" shape-rendering="crispEdges"/><rect fill="#242f38" x="1171.2" y="1001.9" width="85.4" height="24.65" shape-rendering="crispEdges"/><rect fill="#242f38" x="1256.6" y="1001.9" width="195.2" height="24.65" shape-rendering="crispEdges"/><rect fill="#242f38" x="1451.8" y="1001.9" width="36.6" height="24.65" shape-rendering="crispEdges"/><rect fill="#242f38" x="1488.4" y="1001.9" width="61" height="24.65" shape-rendering="crispEdges"/><rect fill="#242f38" x="1549.4" y="1001.9" width="12.2" height="24.65" shape-rendering="crispEdges"/><rect fill="#242f38" x="1561.6" y="1001.9" width="12.2" height="24.65" shape-rendering="crispEdges"/><rect fill="#242f38" x="1573.8" y="1001.9" width="24.4" height="24.65" shape-rendering="crispEdges"/><rect fill="#242f38" x="1598.2" y="1001.9" width="97.6" height="24.65" shape-rendering="crispEdges"/><rect fill="#242f38" x="1695.8" y="1001.9" width="12.2" height="24.65" shape-rendering="crispEdges"/>
    <g class="terminal-4286010863-matrix">
    <text class="terminal-4286010863-r2" x="1708" y="20" textLength="12.2" clip-path="url(#terminal-4286010863-line-0)">
</text><text class="terminal-4286010863-r3" x="12.2" y="44.4" textLength="24.4" clip-path="url(#terminal-4286010863-line-1)">F1</text><text class="terminal-4286010863-r4" x="36.6" y="44.4" textLength="97.6" clip-path="url(#terminal-4286010863-line-1)">&#160;Summary</text><text class="terminal-4286010863-r3" x="158.6" y="44.4" textLength="24.4" clip-path="url(#terminal-4286010863-line-1)">F2</text><text class="terminal-4286010863-r4" x="183" y="44.4" textLength="85.4" clip-path="url(#terminal-4286010863-line-1)">&#160;Alerts</text><text class="terminal-4286010863-r3" x="292.8" y="44.4" textLength="24.4" clip-path="url(#terminal-4286010863-line-1)">F3</text><text class="terminal-4286010863-r4" x="317.2" y="44.4" textLength="122" clip-path="url(#terminal-4286010863-line-1)">&#160;Positions</text><text class="terminal-4286010863-r3" x="463.6" y="44.4" textLength="24.4" clip-path="url(#terminal-4286010863-line-1)">F4</text><text class="terminal-4286010863-r4" x="488" y="44.4" textLength="158.6" clip-path="url(#terminal-4286010863-line-1)">&#160;Transactions</text><text class="terminal-4286010863-r3" x="671" y="44.4" textLength="24.4" clip-path="url(#terminal-4286010863-line-1)">F5</text><text class="terminal-4286010863-r4" x="695.4" y="44.4" textLength="195.2" clip-path="url(#terminal-4286010863-line-1)">&#160;Market&#160;&amp;&#160;Events</text><text class="terminal-4286010863-r3" x="915" y="44.4" textLength="24.4" clip-path="url(#terminal-4286010863-line-1)">F6</text><text class="terminal-4286010863-r4" x="939.4" y="44.4" textLength="109.8" clip-path="url(#terminal-4286010863-line-1)">&#160;Congress</text><text class="terminal-4286010863-r3" x="1073.6" y="44.4" textLength="24.4" clip-path="url(#terminal-4286010863-line-1)">F7</text><text class="terminal-4286010863-r4" x="1098" y="44.4" textLength="134.2" clip-path="url(#terminal-4286010863-line-1)">&#160;Watchlists</text><text class="terminal-4286010863-r5" x="1256.6" y="44.4" textLength="24.4" clip-path="url(#terminal-4286010863-line-1)">F8</text><text class="terminal-4286010863-r6" x="1281" y="44.4" textLength="134.2" clip-path="url(#terminal-4286010863-line-1)">&#160;Strategies</text><text class="terminal-4286010863-r3" x="1439.6" y="44.4" textLength="24.4" clip-path="url(#terminal-4286010863-line-1)">F9</text><text class="terminal-4286010863-r4" x="1464" y="44.4" textLength="85.4" clip-path="url(#terminal-4286010863-line-1)">&#160;Crypto</text><text class="terminal-4286010863-r3" x="1573.8" y="44.4" textLength="36.6" clip-path="url(#terminal-4286010863-line-1)">F10</text><text class="terminal-4286010863-r4" x="1610.4" y="44.4" textLength="85.4" clip-path="url(#terminal-4286010863-line-1)">&#160;Issues</text><text class="terminal-4286010863-r2" x="1708" y="44.4" textLength="12.2" clip-path="url(#terminal-4286010863-line-1)">
</text><text class="terminal-4286010863-r7" x="0" y="68.8" textLength="1256.6" clip-path="url(#terminal-4286010863-line-2)">━━━━━━━━━━━━━━━━━━━━━━━━━━━━━━━━━━━━━━━━━━━━━━━━━━━━━━━━━━━━━━━━━━━━━━━━━━━━━━━━━━━━━━━━━━━━━━━━━━━━━━╸</text><text class="terminal-4286010863-r8" x="1256.6" y="68.8" textLength="158.6" clip-path="url(#terminal-4286010863-line-2)">━━━━━━━━━━━━━</text><text class="terminal-4286010863-r7" x="1415.2" y="68.8" textLength="292.8" clip-path="url(#terminal-4286010863-line-2)">╺━━━━━━━━━━━━━━━━━━━━━━━</text><text class="terminal-4286010863-r2" x="1708" y="68.8" textLength="12.2" clip-path="url(#terminal-4286010863-line-2)">
</text><text class="terminal-4286010863-r6" x="451.4" y="93.2" textLength="707.6" clip-path="url(#terminal-4286010863-line-3)">&#160;Type&#160;&#160;&#160;&#160;&#160;&#160;&#160;&#160;&#160;&#160;&#160;&#160;&#160;&#160;&#160;&#160;&#160;&#160;&#160;&#160;&#160;&#160;&#160;&#160;&#160;&#160;&#160;&#160;&#160;&#160;&#160;&#160;&#160;&#160;&#160;&#160;&#160;&#160;&#160;&#160;&#160;&#160;&#160;&#160;&#160;&#160;&#160;&#160;&#160;&#160;&#160;&#160;&#160;</text><text class="terminal-4286010863-r6" x="1159" y="93.2" textLength="292.8" clip-path="url(#terminal-4286010863-line-3)">&#160;Detail&#160;&#160;&#160;&#160;&#160;&#160;&#160;&#160;&#160;&#160;&#160;&#160;&#160;&#160;&#160;&#160;&#160;</text><text class="terminal-4286010863-r6" x="1451.8" y="93.2" textLength="97.6" clip-path="url(#terminal-4286010863-line-3)">&#160;Params&#160;</text><text class="terminal-4286010863-r2" x="1708" y="93.2" textLength="12.2" clip-path="url(#terminal-4286010863-line-3)">
</text><text class="terminal-4286010863-r9" x="0" y="117.6" textLength="451.4" clip-path="url(#terminal-4286010863-line-4)">&#160;▶&#160;52-Week&#160;Breakout&#160;&#160;&#160;&#160;&#160;&#160;&#160;&#160;&#160;&#160;&#160;&#160;&#160;&#160;&#160;&#160;&#160;&#160;</text><text class="terminal-4286010863-r9" x="451.4" y="117.6" textLength="707.6" clip-path="url(#terminal-4286010863-line-4)">&#160;Near&#160;52-week&#160;extremes&#160;with&#160;momentum&#160;confirmation&#160;&#160;&#160;&#160;&#160;&#160;&#160;&#160;&#160;</text><text class="terminal-4286010863-r9" x="1159" y="117.6" textLength="292.8" clip-path="url(#terminal-4286010863-line-4)">&#160;2&#160;scenarios,&#160;0&#160;tickers&#160;</text><text class="terminal-4286010863-r2" x="1708" y="117.6" textLength="12.2" clip-path="url(#terminal-4286010863-line-4)">
</text><text class="terminal-4286010863-r10" x="0" y="142" textLength="36.6" clip-path="url(#terminal-4286010863-line-5)">&#160;▶&#160;</text><text class="terminal-4286010863-r6" x="36.6" y="142" textLength="231.8" clip-path="url(#terminal-4286010863-line-5)">Accumulation&#160;Signal</text><text class="terminal-4286010863-r10" x="451.4" y="142" textLength="707.6" clip-path="url(#terminal-4286010863-line-5)">&#160;Buy&#160;signal:&#160;oversold&#160;with&#160;a&#160;technical&#160;reversal&#160;forming&#160;&#160;&#160;</text><text class="terminal-4286010863-r10" x="1159" y="142" textLength="292.8" clip-path="url(#terminal-4286010863-line-5)">&#160;2&#160;scenarios,&#160;0&#160;tickers&#160;</text><text class="terminal-4286010863-r2" x="1708" y="142" textLength="12.2" clip-path="url(#terminal-4286010863-line-5)">
</text><text class="terminal-4286010863-r10" x="0" y="166.4" textLength="36.6" clip-path="url(#terminal-4286010863-line-6)">&#160;▶&#160;</text><text class="terminal-4286010863-r6" x="36.6" y="166.4" textLength="219.6" clip-path="url(#terminal-4286010863-line-6)">Concentration&#160;Risk</text><text class="terminal-4286010863-r10" x="451.4" y="166.4" textLength="707.6" clip-path="url(#terminal-4286010863-line-6)">&#160;Single&#160;position&#160;too&#160;large&#160;relative&#160;to&#160;portfolio&#160;&#160;&#160;&#160;&#160;&#160;&#160;&#160;&#160;&#160;</text><text class="terminal-4286010863-r10" x="1159" y="166.4" textLength="292.8" clip-path="url(#terminal-4286010863-line-6)">&#160;1&#160;scenarios,&#160;0&#160;tickers&#160;</text><text class="terminal-4286010863-r2" x="1708" y="166.4" textLength="12.2" clip-path="url(#terminal-4286010863-line-6)">
</text><text class="terminal-4286010863-r10" x="0" y="190.8" textLength="36.6" clip-path="url(#terminal-4286010863-line-7)">&#160;▶&#160;</text><text class="terminal-4286010863-r6" x="36.6" y="190.8" textLength="158.6" clip-path="url(#terminal-4286010863-line-7)">Earnings&#160;Play</text><text class="terminal-4286010863-r10" x="451.4" y="190.8" textLength="707.6" clip-path="url(#terminal-4286010863-line-7)">&#160;Alert&#160;when&#160;earnings&#160;are&#160;near&#160;and&#160;position&#160;is&#160;extended&#160;&#160;&#160;&#160;</text><text class="terminal-4286010863-r10" x="1159" y="190.8" textLength="292.8" clip-path="url(#terminal-4286010863-line-7)">&#160;2&#160;scenarios,&#160;0&#160;tickers&#160;</text><text class="terminal-4286010863-r2" x="1708" y="190.8" textLength="12.2" clip-path="url(#terminal-4286010863-line-7)">
</text><text class="terminal-4286010863-r10" x="0" y="215.2" textLength="36.6" clip-path="url(#terminal-4286010863-line-8)">&#160;▶&#160;</text><text class="terminal-4286010863-r6" x="36.6" y="215.2" textLength="219.6" clip-path="url(#terminal-4286010863-line-8)">Momentum&#160;Breakdown</text><text class="terminal-4286010863-r10" x="451.4" y="215.2" textLength="707.6" clip-path="url(#terminal-4286010863-line-8)">&#160;Exit&#160;signal:&#160;price&#160;dropping&#160;while&#160;technically&#160;overbought&#160;</text><text class="terminal-4286010863-r10" x="1159" y="215.2" textLength="292.8" clip-path="url(#terminal-4286010863-line-8)">&#160;2&#160;scenarios,&#160;0&#160;tickers&#160;</text><text class="terminal-4286010863-r2" x="1708" y="215.2" textLength="12.2" clip-path="url(#terminal-4286010863-line-8)">
</text><text class="terminal-4286010863-r10" x="0" y="239.6" textLength="36.6" clip-path="url(#terminal-4286010863-line-9)">&#160;▶&#160;</text><text class="terminal-4286010863-r6" x="36.6" y="239.6" textLength="134.2" clip-path="url(#terminal-4286010863-line-9)">Signal&#160;Flip</text><text class="terminal-4286010863-r10" x="451.4" y="239.6" textLength="707.6" clip-path="url(#terminal-4286010863-line-9)">&#160;Aggregate&#160;signal&#160;direction&#160;reversed&#160;—&#160;reassess&#160;thesis&#160;&#160;&#160;&#160;</text><text class="terminal-4286010863-r10" x="1159" y="239.6" textLength="292.8" clip-path="url(#terminal-4286010863-line-9)">&#160;1&#160;scenarios,&#160;0&#160;tickers&#160;</text><text class="terminal-4286010863-r2" x="1708" y="239.6" textLength="12.2" clip-path="url(#terminal-4286010863-line-9)">
</text><text class="terminal-4286010863-r10" x="0" y="264" textLength="36.6" clip-path="url(#terminal-4286010863-line-10)">&#160;▶&#160;</text><text class="terminal-4286010863-r6" x="36.6" y="264" textLength="195.2" clip-path="url(#terminal-4286010863-line-10)">Volatility&#160;Spike</text><text class="terminal-4286010863-r10" x="451.4" y="264" textLength="707.6" clip-path="url(#terminal-4286010863-line-10)">&#160;Large&#160;intraday&#160;move&#160;—&#160;review&#160;position&#160;&#160;&#160;&#160;&#160;&#160;&#160;&#160;&#160;&#160;&#160;&#160;&#160;&#160;&#160;&#160;&#160;&#160;&#160;&#160;</text><text class="terminal-4286010863-r10" x="1159" y="264" textLength="292.8" clip-path="url(#terminal-4286010863-line-10)">&#160;1&#160;scenarios,&#160;0&#160;tickers&#160;</text><text class="terminal-4286010863-r2" x="1708" y="264" textLength="12.2" clip-path="url(#terminal-4286010863-line-10)">
</text><text class="terminal-4286010863-r10" x="0" y="288.4" textLength="36.6" clip-path="url(#terminal-4286010863-line-11)">&#160;▶&#160;</text><text class="terminal-4286010863-r6" x="36.6" y="288.4" textLength="329.4" clip-path="url(#terminal-4286010863-line-11)">Congressional:&#160;Cluster&#160;Buys</text><text class="terminal-4286010863-r11" x="463.6" y="288.4" textLength="97.6" clip-path="url(#terminal-4286010863-line-11)">computed</text><text class="terminal-4286010863-r10" x="1159" y="288.4" textLength="292.8" clip-path="url(#terminal-4286010863-line-11)">&#160;0&#160;active&#160;signals&#160;&#160;&#160;&#160;&#160;&#160;&#160;</text><text class="terminal-4286010863-r2" x="1708" y="288.4" textLength="12.2" clip-path="url(#terminal-4286010863-line-11)">
</text><text class="terminal-4286010863-r10" x="0" y="312.8" textLength="36.6" clip-path="url(#terminal-4286010863-line-12)">&#160;▶&#160;</text><text class="terminal-4286010863-r6" x="36.6" y="312.8" textLength="402.6" clip-path="url(#terminal-4286010863-line-12)">Congressional:&#160;Committee-Informed</text><text class="terminal-4286010863-r12" x="463.6" y="312.8" textLength="97.6" clip-path="url(#terminal-4286010863-line-12)">computed</text><text class="terminal-4286010863-r10" x="1159" y="312.8" textLength="292.8" clip-path="url(#terminal-4286010863-line-12)">&#160;0&#160;active&#160;signals&#160;&#160;&#160;&#160;&#160;&#160;&#160;</text><text class="terminal-4286010863-r2" x="1708" y="312.8" textLength="12.2" clip-path="url(#terminal-4286010863-line-12)">
</text><text class="terminal-4286010863-r10" x="0" y="337.2" textLength="36.6" clip-path="url(#terminal-4286010863-line-13)">&#160;▶&#160;</text><text class="terminal-4286010863-r6" x="36.6" y="337.2" textLength="317.2" clip-path="url(#terminal-4286010863-line-13)">Congressional:&#160;Top&#160;Traders</text><text class="terminal-4286010863-r11" x="463.6" y="337.2" textLength="97.6" clip-path="url(#terminal-4286010863-line-13)">computed</text><text class="terminal-4286010863-r10" x="1159" y="337.2" textLength="292.8" clip-path="url(#terminal-4286010863-line-13)">&#160;0&#160;active&#160;signals&#160;&#160;&#160;&#160;&#160;&#160;&#160;</text><text class="terminal-4286010863-r2" x="1708" y="337.2" textLength="12.2" clip-path="url(#terminal-4286010863-line-13)">
</text><text class="terminal-4286010863-r2" x="1708" y="361.6" textLength="12.2" clip-path="url(#terminal-4286010863-line-14)">
</text><text class="terminal-4286010863-r2" x="1708" y="386" textLength="12.2" clip-path="url(#terminal-4286010863-line-15)">
</text><text class="terminal-4286010863-r2" x="1708" y="410.4" textLength="12.2" clip-path="url(#terminal-4286010863-line-16)">
</text><text class="terminal-4286010863-r2" x="1708" y="434.8" textLength="12.2" clip-path="url(#terminal-4286010863-line-17)">
</text><text class="terminal-4286010863-r2" x="1708" y="459.2" textLength="12.2" clip-path="url(#terminal-4286010863-line-18)">
</text><text class="terminal-4286010863-r2" x="1708" y="483.6" textLength="12.2" clip-path="url(#terminal-4286010863-line-19)">
</text><text class="terminal-4286010863-r2" x="1708" y="508" textLength="12.2" clip-path="url(#terminal-4286010863-line-20)">
</text><text class="terminal-4286010863-r2" x="1708" y="532.4" textLength="12.2" clip-path="url(#terminal-4286010863-line-21)">
</text><text class="terminal-4286010863-r2" x="1708" y="556.8" textLength="12.2" clip-path="url(#terminal-4286010863-line-22)">
</text><text class="terminal-4286010863-r2" x="1708" y="581.2" textLength="12.2" clip-path="url(#terminal-4286010863-line-23)">
</text><text class="terminal-4286010863-r2" x="1708" y="605.6" textLength="12.2" clip-path="url(#terminal-4286010863-line-24)">
</text><text class="terminal-4286010863-r2" x="1708" y="630" textLength="12.2" clip-path="url(#terminal-4286010863-line-25)">
</text><text class="terminal-4286010863-r2" x="1708" y="654.4" textLength="12.2" clip-path="url(#terminal-4286010863-line-26)">
</text><text class="terminal-4286010863-r2" x="1708" y="678.8" textLength="12.2" clip-path="url(#terminal-4286010863-line-27)">
</text><text class="terminal-4286010863-r2" x="1708" y="703.2" textLength="12.2" clip-path="url(#terminal-4286010863-line-28)">
</text><text class="terminal-4286010863-r2" x="1708" y="727.6" textLength="12.2" clip-path="url(#terminal-4286010863-line-29)">
</text><text class="terminal-4286010863-r2" x="1708" y="752" textLength="12.2" clip-path="url(#terminal-4286010863-line-30)">
</text><text class="terminal-4286010863-r2" x="1708" y="776.4" textLength="12.2" clip-path="url(#terminal-4286010863-line-31)">
</text><text class="terminal-4286010863-r2" x="1708" y="800.8" textLength="12.2" clip-path="url(#terminal-4286010863-line-32)">
</text><text class="terminal-4286010863-r2" x="1708" y="825.2" textLength="12.2" clip-path="url(#terminal-4286010863-line-33)">
</text><text class="terminal-4286010863-r2" x="1708" y="849.6" textLength="12.2" clip-path="url(#terminal-4286010863-line-34)">
</text><text class="terminal-4286010863-r2" x="1708" y="874" textLength="12.2" clip-path="url(#terminal-4286010863-line-35)">
</text><text class="terminal-4286010863-r2" x="1708" y="898.4" textLength="12.2" clip-path="url(#terminal-4286010863-line-36)">
</text><text class="terminal-4286010863-r2" x="1708" y="922.8" textLength="12.2" clip-path="url(#terminal-4286010863-line-37)">
</text><text class="terminal-4286010863-r2" x="1708" y="947.2" textLength="12.2" clip-path="url(#terminal-4286010863-line-38)">
</text><text class="terminal-4286010863-r2" x="1708" y="971.6" textLength="12.2" clip-path="url(#terminal-4286010863-line-39)">
</text><text class="terminal-4286010863-r2" x="1708" y="996" textLength="12.2" clip-path="url(#terminal-4286010863-line-40)">
</text><text class="terminal-4286010863-r13" x="0" y="1020.4" textLength="36.6" clip-path="url(#terminal-4286010863-line-41)">&#160;n&#160;</text><text class="terminal-4286010863-r10" x="36.6" y="1020.4" textLength="158.6" clip-path="url(#terminal-4286010863-line-41)">New&#160;Strategy&#160;</text><text class="terminal-4286010863-r13" x="195.2" y="1020.4" textLength="36.6" clip-path="url(#terminal-4286010863-line-41)">&#160;s&#160;</text><text class="terminal-4286010863-r10" x="231.8" y="1020.4" textLength="158.6" clip-path="url(#terminal-4286010863-line-41)">Add&#160;Scenario&#160;</text><text class="terminal-4286010863-r13" x="390.4" y="1020.4" textLength="36.6" clip-path="url(#terminal-4286010863-line-41)">&#160;c&#160;</text><text class="terminal-4286010863-r10" x="427" y="1020.4" textLength="170.8" clip-path="url(#terminal-4286010863-line-41)">Add&#160;Condition&#160;</text><text class="terminal-4286010863-r13" x="597.8" y="1020.4" textLength="36.6" clip-path="url(#terminal-4286010863-line-41)">&#160;a&#160;</text><text class="terminal-4286010863-r10" x="634.4" y="1020.4" textLength="170.8" clip-path="url(#terminal-4286010863-line-41)">Assign&#160;Ticker&#160;</text><text class="terminal-4286010863-r13" x="805.2" y="1020.4" textLength="36.6" clip-path="url(#terminal-4286010863-line-41)">&#160;d&#160;</text><text class="terminal-4286010863-r10" x="841.8" y="1020.4" textLength="85.4" clip-path="url(#terminal-4286010863-line-41)">Delete&#160;</text><text class="terminal-4286010863-r13" x="927.2" y="1020.4" textLength="36.6" clip-path="url(#terminal-4286010863-line-41)">&#160;r&#160;</text><text class="terminal-4286010863-r10" x="963.8" y="1020.4" textLength="207.4" clip-path="url(#terminal-4286010863-line-41)">Reset&#160;to&#160;Default&#160;</text><text class="terminal-4286010863-r13" x="1171.2" y="1020.4" textLength="85.4" clip-path="url(#terminal-4286010863-line-41)">&#160;space&#160;</text><text class="terminal-4286010863-r10" x="1256.6" y="1020.4" textLength="195.2" clip-path="url(#terminal-4286010863-line-41)">Expand/Collapse&#160;</text><text class="terminal-4286010863-r13" x="1451.8" y="1020.4" textLength="36.6" clip-path="url(#terminal-4286010863-line-41)">&#160;q&#160;</text><text class="terminal-4286010863-r10" x="1488.4" y="1020.4" textLength="61" clip-path="url(#terminal-4286010863-line-41)">Quit&#160;</text><text class="terminal-4286010863-r14" x="1561.6" y="1020.4" textLength="12.2" clip-path="url(#terminal-4286010863-line-41)">▏</text><text class="terminal-4286010863-r13" x="1573.8" y="1020.4" textLength="24.4" clip-path="url(#terminal-4286010863-line-41)">^p</text><text class="terminal-4286010863-r10" x="1598.2" y="1020.4" textLength="97.6" clip-path="url(#terminal-4286010863-line-41)">&#160;palette</text>
    </g>
    </g>
</svg>
