<svg class="rich-terminal" viewBox="0 0 1726 1074.8" xmlns="http://www.w3.org/2000/svg">
    <!-- Generated with Rich https://www.textualize.io -->
    <style>

    @font-face {
        font-family: "Fira Code";
        src: local("FiraCode-Regular"),
                url("https://cdnjs.cloudflare.com/ajax/libs/firacode/6.2.0/woff2/FiraCode-Regular.woff2") format("woff2"),
                url("https://cdnjs.cloudflare.com/ajax/libs/firacode/6.2.0/woff/FiraCode-Regular.woff") format("woff");
        font-style: normal;
        font-weight: 400;
    }
    @font-face {
        font-family: "Fira Code";
        src: local("FiraCode-Bold"),
                url("https://cdnjs.cloudflare.com/ajax/libs/firacode/6.2.0/woff2/FiraCode-Bold.woff2") format("woff2"),
                url("https://cdnjs.cloudflare.com/ajax/libs/firacode/6.2.0/woff/FiraCode-Bold.woff") format("woff");
        font-style: bold;
        font-weight: 700;
    }

    .terminal-117970624-matrix {
        font-family: Fira Code, monospace;
        font-size: 20px;
        line-height: 24.4px;
        font-variant-east-asian: full-width;
    }

    .terminal-117970624-title {
        font-size: 18px;
        font-weight: bold;
        font-family: arial;
    }

    .terminal-117970624-r1 { fill: #e4e6e7 }
.terminal-117970624-r2 { fill: #c5c8c6 }
.terminal-117970624-r3 { fill: #fea62b;font-weight: bold }
.terminal-117970624-r4 { fill: #ddedf9;font-weight: bold }
.terminal-117970624-r5 { fill: #fea62b }
.terminal-117970624-r6 { fill: #797979 }
.terminal-117970624-r7 { fill: #4f4f4f }
.terminal-117970624-r8 { fill: #0178d4 }
.terminal-117970624-r9 { fill: #e0e0e0 }
.terminal-117970624-r10 { fill: #121212 }
.terminal-117970624-r11 { fill: #000000 }
.terminal-117970624-r12 { fill: #ffa62b;font-weight: bold }
.terminal-117970624-r13 { fill: #495259 }
    </style>

    <defs>
    <clipPath id="terminal-117970624-clip-terminal">
      <rect x="0" y="0" width="1707.0" height="1023.8" />
    </clipPath>
    <clipPath id="terminal-117970624-line-0">
    <rect x="0" y="1.5" width="1708" height="24.65"/>
            </clipPath>
<clipPath id="terminal-117970624-line-1">
    <rect x="0" y="25.9" width="1708" height="24.65"/>
            </clipPath>
<clipPath id="terminal-117970624-line-2">
    <rect x="0" y="50.3" width="1708" height="24.65"/>
            </clipPath>
<clipPath id="terminal-117970624-line-3">
    <rect x="0" y="74.7" width="1708" height="24.65"/>
            </clipPath>
<clipPath id="terminal-117970624-line-4">
    <rect x="0" y="99.1" width="1708" height="24.65"/>
            </clipPath>
<clipPath id="terminal-117970624-line-5">
    <rect x="0" y="123.5" width="1708" height="24.65"/>
            </clipPath>
<clipPath id="terminal-117970624-line-6">
    <rect x="0" y="147.9" width="1708" height="24.65"/>
            </clipPath>
<clipPath id="terminal-117970624-line-7">
    <rect x="0" y="172.3" width="1708" height="24.65"/>
            </clipPath>
<clipPath id="terminal-117970624-line-8">
    <rect x="0" y="196.7" width="1708" height="24.65"/>
            </clipPath>
<clipPath id="terminal-117970624-line-9">
    <rect x="0" y="221.1" width="1708" height="24.65"/>
            </clipPath>
<clipPath id="terminal-117970624-line-10">
    <rect x="0" y="245.5" width="1708" height="24.65"/>
            </clipPath>
<clipPath id="terminal-117970624-line-11">
    <rect x="0" y="269.9" width="1708" height="24.65"/>
            </clipPath>
<clipPath id="terminal-117970624-line-12">
    <rect x="0" y="294.3" width="1708" height="24.65"/>
            </clipPath>
<clipPath id="terminal-117970624-line-13">
    <rect x="0" y="318.7" width="1708" height="24.65"/>
            </clipPath>
<clipPath id="terminal-117970624-line-14">
    <rect x="0" y="343.1" width="1708" height="24.65"/>
            </clipPath>
<clipPath id="terminal-117970624-line-15">
    <rect x="0" y="367.5" width="1708" height="24.65"/>
            </clipPath>
<clipPath id="terminal-117970624-line-16">
    <rect x="0" y="391.9" width="1708" height="24.65"/>
            </clipPath>
<clipPath id="terminal-117970624-line-17">
    <rect x="0" y="416.3" width="1708" height="24.65"/>
            </clipPath>
<clipPath id="terminal-117970624-line-18">
    <rect x="0" y="440.7" width="1708" height="24.65"/>
            </clipPath>
<clipPath id="terminal-117970624-line-19">
    <rect x="0" y="465.1" width="1708" height="24.65"/>
            </clipPath>
<clipPath id="terminal-117970624-line-20">
    <rect x="0" y="489.5" width="1708" height="24.65"/>
            </clipPath>
<clipPath id="terminal-117970624-line-21">
    <rect x="0" y="513.9" width="1708" height="24.65"/>
            </clipPath>
<clipPath id="terminal-117970624-line-22">
    <rect x="0" y="538.3" width="1708" height="24.65"/>
            </clipPath>
<clipPath id="terminal-117970624-line-23">
    <rect x="0" y="562.7" width="1708" height="24.65"/>
            </clipPath>
<clipPath id="terminal-117970624-line-24">
    <rect x="0" y="587.1" width="1708" height="24.65"/>
            </clipPath>
<clipPath id="terminal-117970624-line-25">
    <rect x="0" y="611.5" width="1708" height="24.65"/>
            </clipPath>
<clipPath id="terminal-117970624-line-26">
    <rect x="0" y="635.9" width="1708" height="24.65"/>
            </clipPath>
<clipPath id="terminal-117970624-line-27">
    <rect x="0" y="660.3" width="1708" height="24.65"/>
            </clipPath>
<clipPath id="terminal-117970624-line-28">
    <rect x="0" y="684.7" width="1708" height="24.65"/>
            </clipPath>
<clipPath id="terminal-117970624-line-29">
    <rect x="0" y="709.1" width="1708" height="24.65"/>
            </clipPath>
<clipPath id="terminal-117970624-line-30">
    <rect x="0" y="733.5" width="1708" height="24.65"/>
            </clipPath>
<clipPath id="terminal-117970624-line-31">
    <rect x="0" y="757.9" width="1708" height="24.65"/>
            </clipPath>
<clipPath id="terminal-117970624-line-32">
    <rect x="0" y="782.3" width="1708" height="24.65"/>
            </clipPath>
<clipPath id="terminal-117970624-line-33">
    <rect x="0" y="806.7" width="1708" height="24.65"/>
            </clipPath>
<clipPath id="terminal-117970624-line-34">
    <rect x="0" y="831.1" width="1708" height="24.65"/>
            </clipPath>
<clipPath id="terminal-117970624-line-35">
    <rect x="0" y="855.5" width="1708" height="24.65"/>
            </clipPath>
<clipPath id="terminal-117970624-line-36">
    <rect x="0" y="879.9" width="1708" height="24.65"/>
            </clipPath>
<clipPath id="terminal-117970624-line-37">
    <rect x="0" y="904.3" width="1708" height="24.65"/>
            </clipPath>
<clipPath id="terminal-117970624-line-38">
    <rect x="0" y="928.7" width="1708" height="24.65"/>
            </clipPath>
<clipPath id="terminal-117970624-line-39">
    <rect x="0" y="953.1" width="1708" height="24.65"/>
            </clipPath>
<clipPath id="terminal-117970624-line-40">
    <rect x="0" y="977.5" width="1708" height="24.65"/>
            </clipPath>
    </defs>

    <rect fill="#292929" stroke="rgba(255,255,255,0.35)" stroke-width="1" x="1" y="1" width="1724" height="1072.8" rx="8"/><text class="terminal-117970624-title" fill="#c5c8c6" text-anchor="middle" x="862" y="27">Portfolio&#160;Analyst&#160;@&#160;Innerlight&#160;Labs</text>
            <g transform="translate(26,22)">
            <circle cx="0" cy="0" r="7" fill="#ff5f57"/>
            <circle cx="22" cy="0" r="7" fill="#febc2e"/>
            <circle cx="44" cy="0" r="7" fill="#28c840"/>
            </g>
        
    <g transform="translate(9, 41)" clip-path="url(#terminal-117970624-clip-terminal)">
    <rect fill="#33424e" x="0" y="1.5" width="0" height="24.65" shape-rendering="crispEdges"/><rect fill="#33424e" x="0" y="1.5" width="1708" height="24.65" shape-rendering="crispEdges"/><rect fill="#0178d4" x="0" y="25.9" width="12.2" height="24.65" shape-rendering="crispEdges"/><rect fill="#0178d4" x="12.2" y="25.9" width="24.4" height="24.65" shape-rendering="crispEdges"/><rect fill="#0178d4" x="36.6" y="25.9" width="97.6" height="24.65" shape-rendering="crispEdges"/><rect fill="#0178d4" x="134.2" y="25.9" width="12.2" height="24.65" shape-rendering="crispEdges"/><rect fill="#121212" x="146.4" y="25.9" width="12.2" height="24.65" shape-rendering="crispEdges"/><rect fill="#121212" x="158.6" y="25.9" width="24.4" height="24.65" shape-rendering="crispEdges"/><rect fill="#121212" x="183" y="25.9" width="85.4" height="24.65" shape-rendering="crispEdges"/><rect fill="#121212" x="268.4" y="25.9" width="24.4" height="24.65" shape-rendering="crispEdges"/><rect fill="#121212" x="292.8" y="25.9" width="24.4" height="24.65" shape-rendering="crispEdges"/><rect fill="#121212" x="317.2" y="25.9" width="122" height="24.65" shape-rendering="crispEdges"/><rect fill="#121212" x="439.2" y="25.9" width="24.4" height="24.65" shape-rendering="crispEdges"/><rect fill="#121212" x="463.6" y="25.9" width="24.4" height="24.65" shape-rendering="crispEdges"/><rect fill="#121212" x="488" y="25.9" width="158.6" height="24.65" shape-rendering="crispEdges"/><rect fill="#121212" x="646.6" y="25.9" width="24.4" height="24.65" shape-rendering="crispEdges"/><rect fill="#121212" x="671" y="25.9" width="24.4" height="24.65" shape-rendering="crispEdges"/><rect fill="#121212" x="695.4" y="25.9" width="195.2" height="24.65" shape-rendering="crispEdges"/><rect fill="#121212" x="890.6" y="25.9" width="24.4" height="24.65" shape-rendering="crispEdges"/><rect fill="#121212" x="915" y="25.9" width="24.4" height="24.65" shape-rendering="crispEdges"/><rect fill="#121212" x="939.4" y="25.9" width="109.8" height="24.65" shape-rendering="crispEdges"/><rect fill="#121212" x="1049.2" y="25.9" width="24.4" height="24.65" shape-rendering="crispEdges"/><rect fill="#121212" x="1073.6" y="25.9" width="24.4" height="24.65" shape-rendering="crispEdges"/><rect fill="#121212" x="1098" y="25.9" width="134.2" height="24.65" shape-rendering="crispEdges"/><rect fill="#121212" x="1232.2" y="25.9" width="24.4" height="24.65" shape-rendering="crispEdges"/><rect fill="#121212" x="1256.6" y="25.9" width="24.4" height="24.65" shape-rendering="crispEdges"/><rect fill="#121212" x="1281" y="25.9" width="134.2" height="24.65" shape-rendering="crispEdges"/><rect fill="#121212" x="1415.2" y="25.9" width="24.4" height="24.65" shape-rendering="crispEdges"/><rect fill="#121212" x="1439.6" y="25.9" width="24.4" height="24.65" shape-rendering="crispEdges"/><rect fill="#121212" x="1464" y="25.9" width="85.4" height="24.65" shape-rendering="crispEdges"/><rect fill="#121212" x="1549.4" y="25.9" width="24.4" height="24.65" shape-rendering="crispEdges"/><rect fill="#121212" x="1573.8" y="25.9" width="36.6" height="24.65" shape-rendering="crispEdges"/><rect fill="#121212" x="1610.4" y="25.9" width="85.4" height="24.65" shape-rendering="crispEdges"/><rect fill="#121212" x="1695.8" y="25.9" width="12.2" height="24.65" shape-rendering="crispEdges"/><rect fill="#121212" x="0" y="50.3" width="12.2" height="24.65" shape-rendering="crispEdges"/><rect fill="#121212" x="12.2" y="50.3" width="122" height="24.65" shape-rendering="crispEdges"/><rect fill="#121212" x="134.2" y="50.3" width="1573.8" height="24.65" shape-rendering="crispEdges"/><rect fill="#121212" x="0" y="74.7" width="0" height="24.65" shape-rendering="crispEdges"/><rect fill="#121212" x="0" y="74.7" width="1683.6" height="24.65" shape-rendering="crispEdges"/><rect fill="#003054" x="1683.6" y="74.7" width="24.4" height="24.65" shape-rendering="crispEdges"/><rect fill="#121212" x="0" y="99.1" width="756.4" height="24.65" shape-rendering="crispEdges"/><rect fill="#121212" x="756.4" y="99.1" width="927.2" height="24.65" shape-rendering="crispEdges"/><rect fill="#003054" x="1683.6" y="99.1" width="24.4" height="24.65" shape-rendering="crispEdges"/><rect fill="#121212" x="0" y="123.5" width="475.8" height="24.65" shape-rendering="crispEdges"/><rect fill="#121212" x="475.8" y="123.5" width="1207.8" height="24.65" shape-rendering="crispEdges"/><rect fill="#003054" x="1683.6" y="123.5" width="24.4" height="24.65" shape-rendering="crispEdges"/><rect fill="#121212" x="0" y="147.9" width="475.8" height="24.65" shape-rendering="crispEdges"/><rect fill="#121212" x="475.8" y="147.9" width="1207.8" height="24.65" shape-rendering="crispEdges"/><rect fill="#003054" x="1683.6" y="147.9" width="24.4" height="24.65" shape-rendering="crispEdges"/><rect fill="#121212" x="0" y="172.3" width="597.8" height="24.65" shape-rendering="crispEdges"/><rect fill="#121212" x="597.8" y="172.3" width="1085.8" height="24.65" shape-rendering="crispEdges"/><rect fill="#003054" x="1683.6" y="172.3" width="24.4" height="24.65" shape-rendering="crispEdges"/><rect fill="#121212" x="0" y="196.7" width="610" height="24.65" shape-rendering="crispEdges"/><rect fill="#121212" x="610" y="196.7" width="1073.6" height="24.65" shape-rendering="crispEdges"/><rect fill="#003054" x="1683.6" y="196.7" width="24.4" height="24.65" shape-rendering="crispEdges"/><rect fill="#121212" x="0" y="221.1" width="890.6" height="24.65" shape-rendering="crispEdges"/><rect fill="#121212" x="890.6" y="221.1" width="793" height="24.65" shape-rendering="crispEdges"/><rect fill="#003054" x="1683.6" y="221.1" width="24.4" height="24.65" shape-rendering="crispEdges"/><rect fill="#121212" x="0" y="245.5" width="890.6" height="24.65" shape-rendering="crispEdges"/><rect fill="#121212" x="890.6" y="245.5" width="793" height="24.65" shape-rendering="crispEdges"/><rect fill="#003054" x="1683.6" y="245.5" width="24.4" height="24.65" shape-rendering="crispEdges"/><rect fill="#121212" x="0" y="269.9" width="0" height="24.65" shape-rendering="crispEdges"/><rect fill="#121212" x="0" y="269.9" width="1683.6" height="24.65" shape-rendering="crispEdges"/><rect fill="#003054" x="1683.6" y="269.9" width="24.4" height="24.65" shape-rendering="crispEdges"/><rect fill="#121212" x="0" y="294.3" width="756.4" height="24.65" shape-rendering="crispEdges"/><rect fill="#121212" x="756.4" y="294.3" width="927.2" height="24.65" shape-rendering="crispEdges"/><rect fill="#003054" x="1683.6" y="294.3" width="24.4" height="24.65" shape-rendering="crispEdges"/><rect fill="#121212" x="0" y="318.7" width="573.4" height="24.65" shape-rendering="crispEdges"/><rect fill="#121212" x="573.4" y="318.7" width="1110.2" height="24.65" shape-rendering="crispEdges"/><rect fill="#003054" x="1683.6" y="318.7" width="24.4" height="24.65" shape-rendering="crispEdges"/><rect fill="#121212" x="0" y="343.1" width="573.4" height="24.65" shape-rendering="crispEdges"/><rect fill="#121212" x="573.4" y="343.1" width="1110.2" height="24.65" shape-rendering="crispEdges"/><rect fill="#003054" x="1683.6" y="343.1" width="24.4" height="24.65" shape-rendering="crispEdges"/><rect fill="#121212" x="0" y="367.5" width="0" height="24.65" shape-rendering="crispEdges"/><rect fill="#121212" x="0" y="367.5" width="1683.6" height="24.65" shape-rendering="crispEdges"/><rect fill="#003054" x="1683.6" y="367.5" width="24.4" height="24.65" shape-rendering="crispEdges"/><rect fill="#121212" x="0" y="391.9" width="756.4" height="24.65" shape-rendering="crispEdges"/><rect fill="#121212" x="756.4" y="391.9" width="927.2" height="24.65" shape-rendering="crispEdges"/><rect fill="#003054" x="1683.6" y="391.9" width="24.4" height="24.65" shape-rendering="crispEdges"/><rect fill="#121212" x="0" y="416.3" width="963.8" height="24.65" shape-rendering="crispEdges"/><rect fill="#121212" x="963.8" y="416.3" width="719.8" height="24.65" shape-rendering="crispEdges"/><rect fill="#003054" x="1683.6" y="416.3" width="24.4" height="24.65" shape-rendering="crispEdges"/><rect fill="#121212" x="0" y="440.7" width="915" height="24.65" shape-rendering="crispEdges"/><rect fill="#121212" x="915" y="440.7" width="768.6" height="24.65" shape-rendering="crispEdges"/><rect fill="#003054" x="1683.6" y="440.7" width="24.4" height="24.65" shape-rendering="crispEdges"/><rect fill="#121212" x="0" y="465.1" width="1037" height="24.65" shape-rendering="crispEdges"/><rect fill="#121212" x="1037" y="465.1" width="646.6" height="24.65" shape-rendering="crispEdges"/><rect fill="#003054" x="1683.6" y="465.1" width="24.4" height="24.65" shape-rendering="crispEdges"/><rect fill="#121212" x="0" y="489.5" width="976" height="24.65" shape-rendering="crispEdges"/><rect fill="#121212" x="976" y="489.5" width="707.6" height="24.65" shape-rendering="crispEdges"/><rect fill="#003054" x="1683.6" y="489.5" width="24.4" height="24.65" shape-rendering="crispEdges"/><rect fill="#121212" x="0" y="513.9" width="0" height="24.65" shape-rendering="crispEdges"/><rect fill="#121212" x="0" y="513.9" width="1683.6" height="24.65" shape-rendering="crispEdges"/><rect fill="#003054" x="1683.6" y="513.9" width="24.4" height="24.65" shape-rendering="crispEdges"/><rect fill="#121212" x="0" y="538.3" width="756.4" height="24.65" shape-rendering="crispEdges"/><rect fill="#121212" x="756.4" y="538.3" width="927.2" height="24.65" shape-rendering="crispEdges"/><rect fill="#003054" x="1683.6" y="538.3" width="24.4" height="24.65" shape-rendering="crispEdges"/><rect fill="#121212" x="0" y="562.7" width="341.6" height="24.65" shape-rendering="crispEdges"/><rect fill="#121212" x="341.6" y="562.7" width="1342" height="24.65" shape-rendering="crispEdges"/><rect fill="#003054" x="1683.6" y="562.7" width="24.4" height="24.65" shape-rendering="crispEdges"/><rect fill="#121212" x="0" y="587.1" width="536.8" height="24.65" shape-rendering="crispEdges"/><rect fill="#121212" x="536.8" y="587.1" width="1146.8" height="24.65" shape-rendering="crispEdges"/><rect fill="#003054" x="1683.6" y="587.1" width="24.4" height="24.65" shape-rendering="crispEdges"/><rect fill="#121212" x="0" y="611.5" width="536.8" height="24.65" shape-rendering="crispEdges"/><rect fill="#121212" x="536.8" y="611.5" width="1146.8" height="24.65" shape-rendering="crispEdges"/><rect fill="#003054" x="1683.6" y="611.5" width="24.4" height="24.65" shape-rendering="crispEdges"/><rect fill="#121212" x="0" y="635.9" width="536.8" height="24.65" shape-rendering="crispEdges"/><rect fill="#121212" x="536.8" y="635.9" width="1146.8" height="24.65" shape-rendering="crispEdges"/><rect fill="#003054" x="1683.6" y="635.9" width="24.4" height="24.65" shape-rendering="crispEdges"/><rect fill="#121212" x="0" y="660.3" width="0" height="24.65" shape-rendering="crispEdges"/><rect fill="#121212" x="0" y="660.3" width="1683.6" height="24.65" shape-rendering="crispEdges"/><rect fill="#003054" x="1683.6" y="660.3" width="24.4" height="24.65" shape-rendering="crispEdges"/><rect fill="#121212" x="0" y="684.7" width="756.4" height="24.65" shape-rendering="crispEdges"/><rect fill="#121212" x="756.4" y="684.7" width="927.2" height="24.65" shape-rendering="crispEdges"/><rect fill="#003054" x="1683.6" y="684.7" width="24.4" height="24.65" shape-rendering="crispEdges"/><rect fill="#121212" x="0" y="709.1" width="927.2" height="24.65" shape-rendering="crispEdges"/><rect fill="#121212" x="927.2" y="709.1" width="756.4" height="24.65" shape-rendering="crispEdges"/><rect fill="#003054" x="1683.6" y="709.1" width="24.4" height="24.65" shape-rendering="crispEdges"/><rect fill="#121212" x="0" y="733.5" width="1000.4" height="24.65" shape-rendering="crispEdges"/><rect fill="#121212" x="1000.4" y="733.5" width="683.2" height="24.65" shape-rendering="crispEdges"/><rect fill="#003054" x="1683.6" y="733.5" width="24.4" height="24.65" shape-rendering="crispEdges"/><rect fill="#121212" x="0" y="757.9" width="939.4" height="24.65" shape-rendering="crispEdges"/><rect fill="#121212" x="939.4" y="757.9" width="744.2" height="24.65" shape-rendering="crispEdges"/><rect fill="#003054" x="1683.6" y="757.9" width="24.4" height="24.65" shape-rendering="crispEdges"/><rect fill="#121212" x="0" y="782.3" width="1085.8" height="24.65" shape-rendering="crispEdges"/><rect fill="#121212" x="1085.8" y="782.3" width="597.8" height="24.65" shape-rendering="crispEdges"/><rect fill="#003054" x="1683.6" y="782.3" width="24.4" height="24.65" shape-rendering="crispEdges"/><rect fill="#121212" x="0" y="806.7" width="1037" height="24.65" shape-rendering="crispEdges"/><rect fill="#121212" x="1037" y="806.7" width="646.6" height="24.65" shape-rendering="crispEdges"/><rect fill="#003054" x="1683.6" y="806.7" width="24.4" height="24.65" shape-rendering="crispEdges"/><rect fill="#121212" x="0" y="831.1" width="0" height="24.65" shape-rendering="crispEdges"/><rect fill="#121212" x="0" y="831.1" width="1683.6" height="24.65" shape-rendering="crispEdges"/><rect fill="#003054" x="1683.6" y="831.1" width="24.4" height="24.65" shape-rendering="crispEdges"/><rect fill="#121212" x="0" y="855.5" width="756.4" height="24.65" shape-rendering="crispEdges"/><rect fill="#121212" x="756.4" y="855.5" width="927.2" height="24.65" shape-rendering="crispEdges"/><rect fill="#000000" x="1683.6" y="855.5" width="24.4" height="24.65" shape-rendering="crispEdges"/><rect fill="#121212" x="0" y="879.9" width="195.2" height="24.65" shape-rendering="crispEdges"/><rect fill="#121212" x="195.2" y="879.9" width="597.8" height="24.65" shape-rendering="crispEdges"/><rect fill="#121212" x="793" y="879.9" width="890.6" height="24.65" shape-rendering="crispEdges"/><rect fill="#000000" x="1683.6" y="879.9" width="24.4" height="24.65" shape-rendering="crispEdges"/><rect fill="#121212" x="0" y="904.3" width="195.2" height="24.65" shape-rendering="crispEdges"/><rect fill="#121212" x="195.2" y="904.3" width="707.6" height="24.65" shape-rendering="crispEdges"/><rect fill="#121212" x="902.8" y="904.3" width="780.8" height="24.65" shape-rendering="crispEdges"/><rect fill="#000000" x="1683.6" y="904.3" width="24.4" height="24.65" shape-rendering="crispEdges"/><rect fill="#121212" x="0" y="928.7" width="195.2" height="24.65" shape-rendering="crispEdges"/><rect fill="#121212" x="195.2" y="928.7" width="585.6" height="24.65" shape-rendering="crispEdges"/><rect fill="#121212" x="780.8" y="928.7" width="902.8" height="24.65" shape-rendering="crispEdges"/><rect fill="#000000" x="1683.6" y="928.7" width="24.4" height="24.65" shape-rendering="crispEdges"/><rect fill="#121212" x="0" y="953.1" width="0" height="24.65" shape-rendering="crispEdges"/><rect fill="#121212" x="0" y="953.1" width="1683.6" height="24.65" shape-rendering="crispEdges"/><rect fill="#000000" x="1683.6" y="953.1" width="24.4" height="24.65" shape-rendering="crispEdges"/><rect fill="#121212" x="0" y="977.5" width="756.4" height="24.65" shape-rendering="crispEdges"/><rect fill="#121212" x="756.4" y="977.5" width="927.2" height="24.65" shape-rendering="crispEdges"/><rect fill="#000000" x="1683.6" y="977.5" width="24.4" height="24.65" shape-rendering="crispEdges"/><rect fill="#242f38" x="0" y="1001.9" width="36.6" height="24.65" shape-rendering="crispEdges"/><rect fill="#242f38" x="36.6" y="1001.9" width="61" height="24.65" shape-rendering="crispEdges"/><rect fill="#242f38" x="97.6" y="1001.9" width="36.6" height="24.65" shape-rendering="crispEdges"/><rect fill="#242f38" x="134.2" y="1001.9" width="97.6" height="24.65" shape-rendering="crispEdges"/><rect fill="#242f38" x="231.8" y="1001.9" width="1329.8" height="24.65" shape-rendering="crispEdges"/><rect fill="#242f38" x="1561.6" y="1001.9" width="12.2" height="24.65" shape-rendering="crispEdges"/><rect fill="#242f38" x="1573.8" y="1001.9" width="24.4" height="24.65" shape-rendering="crispEdges"/><rect fill="#242f38" x="1598.2" y="1001.9" width="97.6" height="24.65" shape-rendering="crispEdges"/><rect fill="#242f38" x="1695.8" y="1001.9" width="12.2" height="24.65" shape-rendering="crispEdges"/>
    <g class="terminal-117970624-matrix">
    <text class="terminal-117970624-r2" x="1708" y="20" textLength="12.2" clip-path="url(#terminal-117970624-line-0)">
</text><text class="terminal-117970624-r3" x="12.2" y="44.4" textLength="24.4" clip-path="url(#terminal-117970624-line-1)">F1</text><text class="terminal-117970624-r4" x="36.6" y="44.4" textLength="97.6" clip-path="url(#terminal-117970624-line-1)">&#160;Summary</text><text class="terminal-117970624-r5" x="158.6" y="44.4" textLength="24.4" clip-path="url(#terminal-117970624-line-1)">F2</text><text class="terminal-117970624-r6" x="183" y="44.4" textLength="85.4" clip-path="url(#terminal-117970624-line-1)">&#160;Alerts</text><text class="terminal-117970624-r5" x="292.8" y="44.4" textLength="24.4" clip-path="url(#terminal-117970624-line-1)">F3</text><text class="terminal-117970624-r6" x="317.2" y="44.4" textLength="122" clip-path="url(#terminal-117970624-line-1)">&#160;Positions</text><text class="terminal-117970624-r5" x="463.6" y="44.4" textLength="24.4" clip-path="url(#terminal-117970624-line-1)">F4</text><text class="terminal-117970624-r6" x="488" y="44.4" textLength="158.6" clip-path="url(#terminal-117970624-line-1)">&#160;Transactions</text><text class="terminal-117970624-r5" x="671" y="44.4" textLength="24.4" clip-path="url(#terminal-117970624-line-1)">F5</text><text class="terminal-117970624-r6" x="695.4" y="44.4" textLength="195.2" clip-path="url(#terminal-117970624-line-1)">&#160;Market&#160;&amp;&#160;Events</text><text class="terminal-117970624-r5" x="915" y="44.4" textLength="24.4" clip-path="url(#terminal-117970624-line-1)">F6</text><text class="terminal-117970624-r6" x="939.4" y="44.4" textLength="109.8" clip-path="url(#terminal-117970624-line-1)">&#160;Congress</text><text class="terminal-117970624-r5" x="1073.6" y="44.4" textLength="24.4" clip-path="url(#terminal-117970624-line-1)">F7</text><text class="terminal-117970624-r6" x="1098" y="44.4" textLength="134.2" clip-path="url(#terminal-117970624-line-1)">&#160;Watchlists</text><text class="terminal-117970624-r5" x="1256.6" y="44.4" textLength="24.4" clip-path="url(#terminal-117970624-line-1)">F8</text><text class="terminal-117970624-r6" x="1281" y="44.4" textLength="134.2" clip-path="url(#terminal-117970624-line-1)">&#160;Strategies</text><text class="terminal-117970624-r5" x="1439.6" y="44.4" textLength="24.4" clip-path="url(#terminal-117970624-line-1)">F9</text><text class="terminal-117970624-r6" x="1464" y="44.4" textLength="85.4" clip-path="url(#terminal-117970624-line-1)">&#160;Crypto</text><text class="terminal-117970624-r5" x="1573.8" y="44.4" textLength="36.6" clip-path="url(#terminal-117970624-line-1)">F10</text><text class="terminal-117970624-r6" x="1610.4" y="44.4" textLength="85.4" clip-path="url(#terminal-117970624-line-1)">&#160;Issues</text><text class="terminal-117970624-r2" x="1708" y="44.4" textLength="12.2" clip-path="url(#terminal-117970624-line-1)">
</text><text class="terminal-117970624-r7" x="0" y="68.8" textLength="12.2" clip-path="url(#terminal-117970624-line-2)">╸</text><text class="terminal-117970624-r8" x="12.2" y="68.8" textLength="122" clip-path="url(#terminal-117970624-line-2)">━━━━━━━━━━</text><text class="terminal-117970624-r7" x="134.2" y="68.8" textLength="1573.8" clip-path="url(#terminal-117970624-line-2)">╺━━━━━━━━━━━━━━━━━━━━━━━━━━━━━━━━━━━━━━━━━━━━━━━━━━━━━━━━━━━━━━━━━━━━━━━━━━━━━━━━━━━━━━━━━━━━━━━━━━━━━━━━━━━━━━━━━━━━━━━━━━━━━━━━</text><text class="terminal-117970624-r2" x="1708" y="68.8" textLength="12.2" clip-path="url(#terminal-117970624-line-2)">
</text><text class="terminal-117970624-r2" x="1708" y="93.2" textLength="12.2" clip-path="url(#terminal-117970624-line-3)">
</text><text class="terminal-117970624-r9" x="0" y="117.6" textLength="756.4" clip-path="url(#terminal-117970624-line-4)">&#160;&#160;──&#160;Overview&#160;────────────────────────────────────────────────</text><text class="terminal-117970624-r2" x="1708" y="117.6" textLength="12.2" clip-path="url(#terminal-117970624-line-4)">
</text><text class="terminal-117970624-r9" x="0" y="142" textLength="475.8" clip-path="url(#terminal-117970624-line-5)">&#160;&#160;│&#160;&#160;Total&#160;Value&#160;&#160;&#160;&#160;&#160;&#160;&#160;&#160;$&#160;&#160;&#160;&#160;142,911.55</text><text class="terminal-117970624-r2" x="1708" y="142" textLength="12.2" clip-path="url(#terminal-117970624-line-5)">
</text><text class="terminal-117970624-r9" x="0" y="166.4" textLength="475.8" clip-path="url(#terminal-117970624-line-6)">&#160;&#160;│&#160;&#160;Cost&#160;Basis&#160;&#160;&#160;&#160;&#160;&#160;&#160;&#160;&#160;$&#160;&#160;&#160;&#160;&#160;93,475.00</text><text class="terminal-117970624-r2" x="1708" y="166.4" textLength="12.2" clip-path="url(#terminal-117970624-line-6)">
</text><text class="terminal-117970624-r9" x="0" y="190.8" textLength="597.8" clip-path="url(#terminal-117970624-line-7)">&#160;&#160;│&#160;&#160;Day&#160;Change&#160;&#160;&#160;&#160;&#160;&#160;&#160;&#160;&#160;$&#160;&#160;&#160;&#160;&#160;&#160;1,317.55&#160;&#160;(+0.93%)</text><text class="terminal-117970624-r2" x="1708" y="190.8" textLength="12.2" clip-path="url(#terminal-117970624-line-7)">
</text><text class="terminal-117970624-r9" x="0" y="215.2" textLength="610" clip-path="url(#terminal-117970624-line-8)">&#160;&#160;│&#160;&#160;Unrealized&#160;G/L&#160;&#160;&#160;&#160;&#160;$&#160;&#160;&#160;&#160;&#160;45,186.55&#160;&#160;(+48.34%)</text><text class="terminal-117970624-r2" x="1708" y="215.2" textLength="12.2" clip-path="url(#terminal-117970624-line-8)">
</text><text class="terminal-117970624-r9" x="0" y="239.6" textLength="890.6" clip-path="url(#terminal-117970624-line-9)">&#160;&#160;│&#160;&#160;Realized&#160;G/L&#160;&#160;&#160;&#160;&#160;&#160;&#160;$&#160;&#160;&#160;&#160;&#160;&#160;4,812.50&#160;&#160;YTD&#160;&#160;&#160;&#160;$&#160;&#160;&#160;&#160;&#160;18,245.30&#160;&#160;All-time</text><text class="terminal-117970624-r2" x="1708" y="239.6" textLength="12.2" clip-path="url(#terminal-117970624-line-9)">
</text><text class="terminal-117970624-r9" x="0" y="264" textLength="890.6" clip-path="url(#terminal-117970624-line-10)">&#160;&#160;│&#160;&#160;Dividend&#160;Income&#160;&#160;&#160;&#160;$&#160;&#160;&#160;&#160;&#160;&#160;1,204.18&#160;&#160;YTD&#160;&#160;&#160;&#160;$&#160;&#160;&#160;&#160;&#160;&#160;6,815.42&#160;&#160;All-time</text><text class="terminal-117970624-r2" x="1708" y="264" textLength="12.2" clip-path="url(#terminal-117970624-line-10)">
</text><text class="terminal-117970624-r2" x="1708" y="288.4" textLength="12.2" clip-path="url(#terminal-117970624-line-11)">
</text><text class="terminal-117970624-r9" x="0" y="312.8" textLength="756.4" clip-path="url(#terminal-117970624-line-12)">&#160;&#160;──&#160;Asset&#160;Breakdown&#160;─────────────────────────────────────────</text><text class="terminal-117970624-r2" x="1708" y="312.8" textLength="12.2" clip-path="url(#terminal-117970624-line-12)">
</text><text class="terminal-117970624-r9" x="0" y="337.2" textLength="573.4" clip-path="url(#terminal-117970624-line-13)">&#160;&#160;│&#160;&#160;Equities&#160;&#160;&#160;&#160;&#160;&#160;&#160;&#160;&#160;$&#160;&#160;&#160;&#160;&#160;75,082.55&#160;&#160;&#160;(54.1%)</text><text class="terminal-117970624-r2" x="1708" y="337.2" textLength="12.2" clip-path="url(#terminal-117970624-line-13)">
</text><text class="terminal-117970624-r9" x="0" y="361.6" textLength="573.4" clip-path="url(#terminal-117970624-line-14)">&#160;&#160;│&#160;&#160;Crypto&#160;&#160;&#160;&#160;&#160;&#160;&#160;&#160;&#160;&#160;&#160;$&#160;&#160;&#160;&#160;&#160;63,579.00&#160;&#160;&#160;(45.9%)</text><text class="terminal-117970624-r2" x="1708" y="361.6" textLength="12.2" clip-path="url(#terminal-117970624-line-14)">
</text><text class="terminal-117970624-r2" x="1708" y="386" textLength="12.2" clip-path="url(#terminal-117970624-line-15)">
</text><text class="terminal-117970624-r9" x="0" y="410.4" textLength="756.4" clip-path="url(#terminal-117970624-line-16)">&#160;&#160;──&#160;Accounts&#160;────────────────────────────────────────────────</text><text class="terminal-117970624-r2" x="1708" y="410.4" textLength="12.2" clip-path="url(#terminal-117970624-line-16)">
</text><text class="terminal-117970624-r9" x="0" y="434.8" textLength="963.8" clip-path="url(#terminal-117970624-line-17)">&#160;&#160;│&#160;&#160;Account&#160;&#160;&#160;&#160;&#160;&#160;&#160;&#160;&#160;&#160;Broker&#160;&#160;&#160;&#160;&#160;&#160;&#160;&#160;&#160;&#160;&#160;&#160;&#160;&#160;Value&#160;&#160;&#160;&#160;&#160;&#160;&#160;&#160;Cash&#160;&#160;&#160;&#160;&#160;&#160;&#160;Day&#160;&#160;&#160;&#160;&#160;&#160;&#160;G/L</text><text class="terminal-117970624-r2" x="1708" y="434.8" textLength="12.2" clip-path="url(#terminal-117970624-line-17)">
</text><text class="terminal-117970624-r9" x="0" y="459.2" textLength="915" clip-path="url(#terminal-117970624-line-18)">&#160;&#160;│&#160;&#160;──────────────────────────────────────────────────────────────────────</text><text class="terminal-117970624-r2" x="1708" y="459.2" textLength="12.2" clip-path="url(#terminal-117970624-line-18)">
</text><text class="terminal-117970624-r9" x="0" y="483.6" textLength="1037" clip-path="url(#terminal-117970624-line-19)">&#160;&#160;│&#160;&#160;acct-demo&#160;&#160;&#160;&#160;&#160;&#160;&#160;&#160;schwab&#160;&#160;&#160;&#160;&#160;$&#160;&#160;&#160;&#160;&#160;79,332.55&#160;&#160;$&#160;&#160;&#160;&#160;&#160;&#160;4,250.00&#160;&#160;&#160;&#160;+1.08%&#160;&#160;&#160;+36.59%</text><text class="terminal-117970624-r2" x="1708" y="483.6" textLength="12.2" clip-path="url(#terminal-117970624-line-19)">
</text><text class="terminal-117970624-r9" x="0" y="508" textLength="976" clip-path="url(#terminal-117970624-line-20)">&#160;&#160;│&#160;&#160;coinbase-default&#160;coinbase&#160;&#160;&#160;$&#160;&#160;&#160;&#160;&#160;63,579.00&#160;&#160;&#160;&#160;&#160;&#160;&#160;&#160;&#160;&#160;&#160;&#160;&#160;&#160;&#160;&#160;+0.74%&#160;&#160;&#160;+65.12%</text><text class="terminal-117970624-r2" x="1708" y="508" textLength="12.2" clip-path="url(#terminal-117970624-line-20)">
</text><text class="terminal-117970624-r2" x="1708" y="532.4" textLength="12.2" clip-path="url(#terminal-117970624-line-21)">
</text><text class="terminal-117970624-r9" x="0" y="556.8" textLength="756.4" clip-path="url(#terminal-117970624-line-22)">&#160;&#160;──&#160;Performance&#160;(TWR)&#160;───────────────────────────────────────</text><text class="terminal-117970624-r2" x="1708" y="556.8" textLength="12.2" clip-path="url(#terminal-117970624-line-22)">
</text><text class="terminal-117970624-r9" x="0" y="581.2" textLength="341.6" clip-path="url(#terminal-117970624-line-23)">&#160;&#160;│&#160;&#160;YTD&#160;&#160;&#160;&#160;&#160;&#160;&#160;&#160;&#160;&#160;&#160;&#160;&#160;&#160;+8.40%</text><text class="terminal-117970624-r2" x="1708" y="581.2" textLength="12.2" clip-path="url(#terminal-117970624-line-23)">
</text><text class="terminal-117970624-r9" x="0" y="605.6" textLength="536.8" clip-path="url(#terminal-117970624-line-24)">&#160;&#160;│&#160;&#160;1Y&#160;&#160;&#160;&#160;&#160;&#160;&#160;&#160;&#160;&#160;&#160;&#160;&#160;&#160;+18.20%&#160;&#160;(ann:&#160;+18.20%)</text><text class="terminal-117970624-r2" x="1708" y="605.6" textLength="12.2" clip-path="url(#terminal-117970624-line-24)">
</text><text class="terminal-117970624-r9" x="0" y="630" textLength="536.8" clip-path="url(#terminal-117970624-line-25)">&#160;&#160;│&#160;&#160;3Y&#160;&#160;&#160;&#160;&#160;&#160;&#160;&#160;&#160;&#160;&#160;&#160;&#160;&#160;+51.20%&#160;&#160;(ann:&#160;+14.70%)</text><text class="terminal-117970624-r2" x="1708" y="630" textLength="12.2" clip-path="url(#terminal-117970624-line-25)">
</text><text class="terminal-117970624-r9" x="0" y="654.4" textLength="536.8" clip-path="url(#terminal-117970624-line-26)">&#160;&#160;│&#160;&#160;Inception&#160;&#160;&#160;&#160;&#160;&#160;&#160;+84.00%&#160;&#160;(ann:&#160;+11.80%)</text><text class="terminal-117970624-r2" x="1708" y="654.4" textLength="12.2" clip-path="url(#terminal-117970624-line-26)">
</text><text class="terminal-117970624-r2" x="1708" y="678.8" textLength="12.2" clip-path="url(#terminal-117970624-line-27)">
</text><text class="terminal-117970624-r9" x="0" y="703.2" textLength="756.4" clip-path="url(#terminal-117970624-line-28)">&#160;&#160;──&#160;Health&#160;&#160;███████████████░░░░░&#160;&#160;78/100&#160;────────────────────</text><text class="terminal-117970624-r2" x="1708" y="703.2" textLength="12.2" clip-path="url(#terminal-117970624-line-28)">
</text><text class="terminal-117970624-r9" x="0" y="727.6" textLength="927.2" clip-path="url(#terminal-117970624-line-29)">&#160;&#160;│&#160;&#160;Diversification&#160;&#160;██████████████░░░░░░&#160;&#160;72&#160;&#160;7&#160;sectors;&#160;tech-heavy&#160;at&#160;38%</text><text class="terminal-117970624-r2" x="1708" y="727.6" textLength="12.2" clip-path="url(#terminal-117970624-line-29)">
</text><text class="terminal-117970624-r9" x="0" y="752" textLength="1000.4" clip-path="url(#terminal-117970624-line-30)">&#160;&#160;│&#160;&#160;Concentration&#160;&#160;&#160;&#160;█████████████░░░░░░░&#160;&#160;65&#160;&#160;top&#160;3&#160;positions&#160;=&#160;41%&#160;of&#160;portfolio</text><text class="terminal-117970624-r2" x="1708" y="752" textLength="12.2" clip-path="url(#terminal-117970624-line-30)">
</text><text class="terminal-117970624-r9" x="0" y="776.4" textLength="939.4" clip-path="url(#terminal-117970624-line-31)">&#160;&#160;│&#160;&#160;Valuation&#160;&#160;&#160;&#160;&#160;&#160;&#160;&#160;████████████████░░░░&#160;&#160;80&#160;&#160;weighted&#160;P/E&#160;22.4&#160;vs&#160;S&amp;P&#160;24.1</text><text class="terminal-117970624-r2" x="1708" y="776.4" textLength="12.2" clip-path="url(#terminal-117970624-line-31)">
</text><text class="terminal-117970624-r9" x="0" y="800.8" textLength="1085.8" clip-path="url(#terminal-117970624-line-32)">&#160;&#160;│&#160;&#160;Momentum&#160;&#160;&#160;&#160;&#160;&#160;&#160;&#160;&#160;█████████████████░░░&#160;&#160;88&#160;&#160;12-mo&#160;trend&#160;positive&#160;across&#160;8/10&#160;holdings</text><text class="terminal-117970624-r2" x="1708" y="800.8" textLength="12.2" clip-path="url(#terminal-117970624-line-32)">
</text><text class="terminal-117970624-r9" x="0" y="825.2" textLength="1037" clip-path="url(#terminal-117970624-line-33)">&#160;&#160;│&#160;&#160;Risk&#160;&#160;&#160;&#160;&#160;&#160;&#160;&#160;&#160;&#160;&#160;&#160;&#160;████████████████░░░░&#160;&#160;82&#160;&#160;portfolio&#160;beta&#160;1.06;&#160;volatility&#160;14.2%</text><text class="terminal-117970624-r2" x="1708" y="825.2" textLength="12.2" clip-path="url(#terminal-117970624-line-33)">
</text><text class="terminal-117970624-r11" x="1683.6" y="849.6" textLength="24.4" clip-path="url(#terminal-117970624-line-34)">▄▄</text><text class="terminal-117970624-r2" x="1708" y="849.6" textLength="12.2" clip-path="url(#terminal-117970624-line-34)">
</text><text class="terminal-117970624-r9" x="0" y="874" textLength="756.4" clip-path="url(#terminal-117970624-line-35)">&#160;&#160;──&#160;Signals&#160;─────────────────────────────────────────────────</text><text class="terminal-117970624-r2" x="1708" y="874" textLength="12.2" clip-path="url(#terminal-117970624-line-35)">
</text><text class="terminal-117970624-r9" x="0" y="898.4" textLength="195.2" clip-path="url(#terminal-117970624-line-36)">&#160;&#160;│&#160;&#160;⚠&#160;ACTION&#160;&#160;&#160;</text><text class="terminal-117970624-r9" x="195.2" y="898.4" textLength="597.8" clip-path="url(#terminal-117970624-line-36)">&#160;&#160;&#160;up&#160;5.6%&#160;today&#160;—&#160;alert&#160;threshold&#160;5.0%&#160;triggered</text><text class="terminal-117970624-r2" x="1708" y="898.4" textLength="12.2" clip-path="url(#terminal-117970624-line-36)">
</text><text class="terminal-117970624-r9" x="0" y="922.8" textLength="195.2" clip-path="url(#terminal-117970624-line-37)">&#160;&#160;│&#160;&#160;⚠&#160;WARNING&#160;&#160;</text><text class="terminal-117970624-r9" x="195.2" y="922.8" textLength="707.6" clip-path="url(#terminal-117970624-line-37)">&#160;&#160;&#160;&#160;below&#160;50-day&#160;moving&#160;average&#160;for&#160;8&#160;consecutive&#160;sessions</text><text class="terminal-117970624-r2" x="1708" y="922.8" textLength="12.2" clip-path="url(#terminal-117970624-line-37)">
</text><text class="terminal-117970624-r9" x="0" y="947.2" textLength="195.2" clip-path="url(#terminal-117970624-line-38)">&#160;&#160;│&#160;&#160;ℹ&#160;INFO&#160;&#160;&#160;&#160;&#160;</text><text class="terminal-117970624-r9" x="195.2" y="947.2" textLength="585.6" clip-path="url(#terminal-117970624-line-38)">&#160;&#160;&#160;earnings&#160;call&#160;in&#160;8&#160;days&#160;—&#160;consensus&#160;EPS&#160;$1.50</text><text class="terminal-117970624-r2" x="1708" y="947.2" textLength="12.2" clip-path="url(#terminal-117970624-line-38)">
</text><text class="terminal-117970624-r2" x="1708" y="971.6" textLength="12.2" clip-path="url(#terminal-117970624-line-39)">
</text><text class="terminal-117970624-r9" x="0" y="996" textLength="756.4" clip-path="url(#terminal-117970624-line-40)">&#160;&#160;──&#160;Metrics&#160;─────────────────────────────────────────────────</text><text class="terminal-117970624-r2" x="1708" y="996" textLength="12.2" clip-path="url(#terminal-117970624-line-40)">
</text><text class="terminal-117970624-r12" x="0" y="1020.4" textLength="36.6" clip-path="url(#terminal-117970624-line-41)">&#160;q&#160;</text><text class="terminal-117970624-r9" x="36.6" y="1020.4" textLength="61" clip-path="url(#terminal-117970624-line-41)">Quit&#160;</text><text class="terminal-117970624-r12" x="97.6" y="1020.4" textLength="36.6" clip-path="url(#terminal-117970624-line-41)">&#160;r&#160;</text><text class="terminal-117970624-r9" x="134.2" y="1020.4" textLength="97.6" clip-path="url(#terminal-117970624-line-41)">Refresh&#160;</text><text class="terminal-117970624-r13" x="1561.6" y="1020.4" textLength="12.2" clip-path="url(#terminal-117970624-line-41)">▏</text><text class="terminal-117970624-r12" x="1573.8" y="1020.4" textLength="24.4" clip-path="url(#terminal-117970624-line-41)">^p</text><text class="terminal-117970624-r9" x="1598.2" y="1020.4" textLength="97.6" clip-path="url(#terminal-117970624-line-41)">&#160;palette</text>
    </g>
    </g>
</svg>
