<svg class="rich-terminal" viewBox="0 0 1726 1074.8" xmlns="http://www.w3.org/2000/svg">
    <!-- Generated with Rich https://www.textualize.io -->
    <style>

    @font-face {
        font-family: "Fira Code";
        src: local("FiraCode-Regular"),
                url("https://cdnjs.cloudflare.com/ajax/libs/firacode/6.2.0/woff2/FiraCode-Regular.woff2") format("woff2"),
                url("https://cdnjs.cloudflare.com/ajax/libs/firacode/6.2.0/woff/FiraCode-Regular.woff") format("woff");
        font-style: normal;
        font-weight: 400;
    }
    @font-face {
        font-family: "Fira Code";
        src: local("FiraCode-Bold"),
                url("https://cdnjs.cloudflare.com/ajax/libs/firacode/6.2.0/woff2/FiraCode-Bold.woff2") format("woff2"),
                url("https://cdnjs.cloudflare.com/ajax/libs/firacode/6.2.0/woff/FiraCode-Bold.woff") format("woff");
        font-style: bold;
        font-weight: 700;
    }

    .terminal-1907232217-matrix {
        font-family: Fira Code, monospace;
        font-size: 20px;
        line-height: 24.4px;
        font-variant-east-asian: full-width;
    }

    .terminal-1907232217-title {
        font-size: 18px;
        font-weight: bold;
        font-family: arial;
    }

    .terminal-1907232217-r1 { fill: #e4e6e7 }
.terminal-1907232217-r2 { fill: #c5c8c6 }
.terminal-1907232217-r3 { fill: #fea62b }
.terminal-1907232217-r4 { fill: #797979 }
.terminal-1907232217-r5 { fill: #fea62b;font-weight: bold }
.terminal-1907232217-r6 { fill: #e0e0e0;font-weight: bold }
.terminal-1907232217-r7 { fill: #262626 }
.terminal-1907232217-r8 { fill: #0178d4 }
.terminal-1907232217-r9 { fill: #6db2ff }
.terminal-1907232217-r10 { fill: #2d2d2d }
.terminal-1907232217-r11 { fill: #ddedf9;font-weight: bold }
.terminal-1907232217-r12 { fill: #004295 }
.terminal-1907232217-r13 { fill: #0d0d0d }
.terminal-1907232217-r14 { fill: #e0e0e0 }
.terminal-1907232217-r15 { fill: #ffa62b;font-weight: bold }
.terminal-1907232217-r16 { fill: #495259 }
    </style>

    <defs>
    <clipPath id="terminal-1907232217-clip-terminal">
      <rect x="0" y="0" width="1707.0" height="1023.8" />
    </clipPath>
    <clipPath id="terminal-1907232217-line-0">
    <rect x="0" y="1.5" width="1708" height="24.65"/>
            </clipPath>
<clipPath id="terminal-1907232217-line-1">
    <rect x="0" y="25.9" width="1708" height="24.65"/>
            </clipPath>
<clipPath id="terminal-1907232217-line-2">
    <rect x="0" y="50.3" width="1708" height="24.65"/>
            </clipPath>
<clipPath id="terminal-1907232217-line-3">
    <rect x="0" y="74.7" width="1708" height="24.65"/>
            </clipPath>
<clipPath id="terminal-1907232217-line-4">
    <rect x="0" y="99.1" width="1708" height="24.65"/>
            </clipPath>
<clipPath id="terminal-1907232217-line-5">
    <rect x="0" y="123.5" width="1708" height="24.65"/>
            </clipPath>
<clipPath id="terminal-1907232217-line-6">
    <rect x="0" y="147.9" width="1708" height="24.65"/>
            </clipPath>
<clipPath id="terminal-1907232217-line-7">
    <rect x="0" y="172.3" width="1708" height="24.65"/>
            </clipPath>
<clipPath id="terminal-1907232217-line-8">
    <rect x="0" y="196.7" width="1708" height="24.65"/>
            </clipPath>
<clipPath id="terminal-1907232217-line-9">
    <rect x="0" y="221.1" width="1708" height="24.65"/>
            </clipPath>
<clipPath id="terminal-1907232217-line-10">
    <rect x="0" y="245.5" width="1708" height="24.65"/>
            </clipPath>
<clipPath id="terminal-1907232217-line-11">
    <rect x="0" y="269.9" width="1708" height="24.65"/>
            </clipPath>
<clipPath id="terminal-1907232217-line-12">
    <rect x="0" y="294.3" width="1708" height="24.65"/>
            </clipPath>
<clipPath id="terminal-1907232217-line-13">
    <rect x="0" y="318.7" width="1708" height="24.65"/>
            </clipPath>
<clipPath id="terminal-1907232217-line-14">
    <rect x="0" y="343.1" width="1708" height="24.65"/>
            </clipPath>
<clipPath id="terminal-1907232217-line-15">
    <rect x="0" y="367.5" width="1708" height="24.65"/>
            </clipPath>
<clipPath id="terminal-1907232217-line-16">
    <rect x="0" y="391.9" width="1708" height="24.65"/>
            </clipPath>
<clipPath id="terminal-1907232217-line-17">
    <rect x="0" y="416.3" width="1708" height="24.65"/>
            </clipPath>
<clipPath id="terminal-1907232217-line-18">
    <rect x="0" y="440.7" width="1708" height="24.65"/>
            </clipPath>
<clipPath id="terminal-1907232217-line-19">
    <rect x="0" y="465.1" width="1708" height="24.65"/>
            </clipPath>
<clipPath id="terminal-1907232217-line-20">
    <rect x="0" y="489.5" width="1708" height="24.65"/>
            </clipPath>
<clipPath id="terminal-1907232217-line-21">
    <rect x="0" y="513.9" width="1708" height="24.65"/>
            </clipPath>
<clipPath id="terminal-1907232217-line-22">
    <rect x="0" y="538.3" width="1708" height="24.65"/>
            </clipPath>
<clipPath id="terminal-1907232217-line-23">
    <rect x="0" y="562.7" width="1708" height="24.65"/>
            </clipPath>
<clipPath id="terminal-1907232217-line-24">
    <rect x="0" y="587.1" width="1708" height="24.65"/>
            </clipPath>
<clipPath id="terminal-1907232217-line-25">
    <rect x="0" y="611.5" width="1708" height="24.65"/>
            </clipPath>
<clipPath id="terminal-1907232217-line-26">
    <rect x="0" y="635.9" width="1708" height="24.65"/>
            </clipPath>
<clipPath id="terminal-1907232217-line-27">
    <rect x="0" y="660.3" width="1708" height="24.65"/>
            </clipPath>
<clipPath id="terminal-1907232217-line-28">
    <rect x="0" y="684.7" width="1708" height="24.65"/>
            </clipPath>
<clipPath id="terminal-1907232217-line-29">
    <rect x="0" y="709.1" width="1708" height="24.65"/>
            </clipPath>
<clipPath id="terminal-1907232217-line-30">
    <rect x="0" y="733.5" width="1708" height="24.65"/>
            </clipPath>
<clipPath id="terminal-1907232217-line-31">
    <rect x="0" y="757.9" width="1708" height="24.65"/>
            </clipPath>
<clipPath id="terminal-1907232217-line-32">
    <rect x="0" y="782.3" width="1708" height="24.65"/>
            </clipPath>
<clipPath id="terminal-1907232217-line-33">
    <rect x="0" y="806.7" width="1708" height="24.65"/>
            </clipPath>
<clipPath id="terminal-1907232217-line-34">
    <rect x="0" y="831.1" width="1708" height="24.65"/>
            </clipPath>
<clipPath id="terminal-1907232217-line-35">
    <rect x="0" y="855.5" width="1708" height="24.65"/>
            </clipPath>
<clipPath id="terminal-1907232217-line-36">
    <rect x="0" y="879.9" width="1708" height="24.65"/>
            </clipPath>
<clipPath id="terminal-1907232217-line-37">
    <rect x="0" y="904.3" width="1708" height="24.65"/>
            </clipPath>
<clipPath id="terminal-1907232217-line-38">
    <rect x="0" y="928.7" width="1708" height="24.65"/>
            </clipPath>
<clipPath id="terminal-1907232217-line-39">
    <rect x="0" y="953.1" width="1708" height="24.65"/>
            </clipPath>
<clipPath id="terminal-1907232217-line-40">
    <rect x="0" y="977.5" width="1708" height="24.65"/>
            </clipPath>
    </defs>

    <rect fill="#292929" stroke="rgba(255,255,255,0.35)" stroke-width="1" x="1" y="1" width="1724" height="1072.8" rx="8"/><text class="terminal-1907232217-title" fill="#c5c8c6" text-anchor="middle" x="862" y="27">Portfolio&#160;Analyst&#160;@&#160;Innerlight&#160;Labs</text>
            <g transform="translate(26,22)">
            <circle cx="0" cy="0" r="7" fill="#ff5f57"/>
            <circle cx="22" cy="0" r="7" fill="#febc2e"/>
            <circle cx="44" cy="0" r="7" fill="#28c840"/>
            </g>
        
    <g transform="translate(9, 41)" clip-path="url(#terminal-1907232217-clip-terminal)">
    <rect fill="#33424e" x="0" y="1.5" width="0" height="24.65" shape-rendering="crispEdges"/><rect fill="#33424e" x="0" y="1.5" width="1708" height="24.65" shape-rendering="crispEdges"/><rect fill="#121212" x="0" y="25.9" width="12.2" height="24.65" shape-rendering="crispEdges"/><rect fill="#121212" x="12.2" y="25.9" width="24.4" height="24.65" shape-rendering="crispEdges"/><rect fill="#121212" x="36.6" y="25.9" width="97.6" height="24.65" shape-rendering="crispEdges"/><rect fill="#121212" x="134.2" y="25.9" width="24.4" height="24.65" shape-rendering="crispEdges"/><rect fill="#121212" x="158.6" y="25.9" width="24.4" height="24.65" shape-rendering="crispEdges"/><rect fill="#121212" x="183" y="25.9" width="85.4" height="24.65" shape-rendering="crispEdges"/><rect fill="#121212" x="268.4" y="25.9" width="24.4" height="24.65" shape-rendering="crispEdges"/><rect fill="#121212" x="292.8" y="25.9" width="24.4" height="24.65" shape-rendering="crispEdges"/><rect fill="#121212" x="317.2" y="25.9" width="122" height="24.65" shape-rendering="crispEdges"/><rect fill="#121212" x="439.2" y="25.9" width="24.4" height="24.65" shape-rendering="crispEdges"/><rect fill="#121212" x="463.6" y="25.9" width="24.4" height="24.65" shape-rendering="crispEdges"/><rect fill="#121212" x="488" y="25.9" width="158.6" height="24.65" shape-rendering="crispEdges"/><rect fill="#121212" x="646.6" y="25.9" width="24.4" height="24.65" shape-rendering="crispEdges"/><rect fill="#121212" x="671" y="25.9" width="24.4" height="24.65" shape-rendering="crispEdges"/><rect fill="#121212" x="695.4" y="25.9" width="195.2" height="24.65" shape-rendering="crispEdges"/><rect fill="#121212" x="890.6" y="25.9" width="24.4" height="24.65" shape-rendering="crispEdges"/><rect fill="#121212" x="915" y="25.9" width="24.4" height="24.65" shape-rendering="crispEdges"/><rect fill="#121212" x="939.4" y="25.9" width="109.8" height="24.65" shape-rendering="crispEdges"/><rect fill="#121212" x="1049.2" y="25.9" width="24.4" height="24.65" shape-rendering="crispEdges"/><rect fill="#121212" x="1073.6" y="25.9" width="24.4" height="24.65" shape-rendering="crispEdges"/><rect fill="#121212" x="1098" y="25.9" width="134.2" height="24.65" shape-rendering="crispEdges"/><rect fill="#121212" x="1232.2" y="25.9" width="24.4" height="24.65" shape-rendering="crispEdges"/><rect fill="#121212" x="1256.6" y="25.9" width="24.4" height="24.65" shape-rendering="crispEdges"/><rect fill="#121212" x="1281" y="25.9" width="134.2" height="24.65" shape-rendering="crispEdges"/><rect fill="#121212" x="1415.2" y="25.9" width="24.4" height="24.65" shape-rendering="crispEdges"/><rect fill="#121212" x="1439.6" y="25.9" width="24.4" height="24.65" shape-rendering="crispEdges"/><rect fill="#121212" x="1464" y="25.9" width="85.4" height="24.65" shape-rendering="crispEdges"/><rect fill="#121212" x="1549.4" y="25.9" width="24.4" height="24.65" shape-rendering="crispEdges"/><rect fill="#121212" x="1573.8" y="25.9" width="36.6" height="24.65" shape-rendering="crispEdges"/><rect fill="#121212" x="1610.4" y="25.9" width="85.4" height="24.65" shape-rendering="crispEdges"/><rect fill="#121212" x="1695.8" y="25.9" width="12.2" height="24.65" shape-rendering="crispEdges"/><rect fill="#121212" x="0" y="50.3" width="463.6" height="24.65" shape-rendering="crispEdges"/><rect fill="#121212" x="463.6" y="50.3" width="183" height="24.65" shape-rendering="crispEdges"/><rect fill="#121212" x="646.6" y="50.3" width="1061.4" height="24.65" shape-rendering="crispEdges"/><rect fill="#0178d4" x="0" y="74.7" width="122" height="24.65" shape-rendering="crispEdges"/><rect fill="#121212" x="122" y="74.7" width="12.2" height="24.65" shape-rendering="crispEdges"/><rect fill="#1e1e1e" x="134.2" y="74.7" width="122" height="24.65" shape-rendering="crispEdges"/><rect fill="#121212" x="256.2" y="74.7" width="12.2" height="24.65" shape-rendering="crispEdges"/><rect fill="#1e1e1e" x="268.4" y="74.7" width="122" height="24.65" shape-rendering="crispEdges"/><rect fill="#121212" x="390.4" y="74.7" width="1317.6" height="24.65" shape-rendering="crispEdges"/><rect fill="#0178d4" x="0" y="99.1" width="24.4" height="24.65" shape-rendering="crispEdges"/><rect fill="#0178d4" x="24.4" y="99.1" width="61" height="24.65" shape-rendering="crispEdges"/><rect fill="#0178d4" x="85.4" y="99.1" width="36.6" height="24.65" shape-rendering="crispEdges"/><rect fill="#121212" x="122" y="99.1" width="12.2" height="24.65" shape-rendering="crispEdges"/><rect fill="#1e1e1e" x="134.2" y="99.1" width="12.2" height="24.65" shape-rendering="crispEdges"/><rect fill="#1e1e1e" x="146.4" y="99.1" width="97.6" height="24.65" shape-rendering="crispEdges"/><rect fill="#1e1e1e" x="244" y="99.1" width="12.2" height="24.65" shape-rendering="crispEdges"/><rect fill="#121212" x="256.2" y="99.1" width="12.2" height="24.65" shape-rendering="crispEdges"/><rect fill="#1e1e1e" x="268.4" y="99.1" width="12.2" height="24.65" shape-rendering="crispEdges"/><rect fill="#1e1e1e" x="280.6" y="99.1" width="97.6" height="24.65" shape-rendering="crispEdges"/><rect fill="#1e1e1e" x="378.2" y="99.1" width="12.2" height="24.65" shape-rendering="crispEdges"/><rect fill="#121212" x="390.4" y="99.1" width="1317.6" height="24.65" shape-rendering="crispEdges"/><rect fill="#0178d4" x="0" y="123.5" width="122" height="24.65" shape-rendering="crispEdges"/><rect fill="#121212" x="122" y="123.5" width="12.2" height="24.65" shape-rendering="crispEdges"/><rect fill="#1e1e1e" x="134.2" y="123.5" width="122" height="24.65" shape-rendering="crispEdges"/><rect fill="#121212" x="256.2" y="123.5" width="12.2" height="24.65" shape-rendering="crispEdges"/><rect fill="#1e1e1e" x="268.4" y="123.5" width="122" height="24.65" shape-rendering="crispEdges"/><rect fill="#121212" x="390.4" y="123.5" width="1317.6" height="24.65" shape-rendering="crispEdges"/><rect fill="#2d3740" x="0" y="147.9" width="146.4" height="24.65" shape-rendering="crispEdges"/><rect fill="#2d3740" x="146.4" y="147.9" width="97.6" height="24.65" shape-rendering="crispEdges"/><rect fill="#2d3740" x="244" y="147.9" width="97.6" height="24.65" shape-rendering="crispEdges"/><rect fill="#2d3740" x="341.6" y="147.9" width="97.6" height="24.65" shape-rendering="crispEdges"/><rect fill="#2d3740" x="439.2" y="147.9" width="85.4" height="24.65" shape-rendering="crispEdges"/><rect fill="#2d3740" x="524.6" y="147.9" width="109.8" height="24.65" shape-rendering="crispEdges"/><rect fill="#2d3740" x="634.4" y="147.9" width="134.2" height="24.65" shape-rendering="crispEdges"/><rect fill="#2d3740" x="768.6" y="147.9" width="73.2" height="24.65" shape-rendering="crispEdges"/><rect fill="#2b3339" x="841.8" y="147.9" width="866.2" height="24.65" shape-rendering="crispEdges"/><rect fill="#0178d4" x="0" y="172.3" width="146.4" height="24.65" shape-rendering="crispEdges"/><rect fill="#1c1c1c" x="146.4" y="172.3" width="97.6" height="24.65" shape-rendering="crispEdges"/><rect fill="#1c1c1c" x="244" y="172.3" width="97.6" height="24.65" shape-rendering="crispEdges"/><rect fill="#1c1c1c" x="341.6" y="172.3" width="97.6" height="24.65" shape-rendering="crispEdges"/><rect fill="#1c1c1c" x="439.2" y="172.3" width="85.4" height="24.65" shape-rendering="crispEdges"/><rect fill="#1c1c1c" x="524.6" y="172.3" width="109.8" height="24.65" shape-rendering="crispEdges"/><rect fill="#1c1c1c" x="634.4" y="172.3" width="134.2" height="24.65" shape-rendering="crispEdges"/><rect fill="#1c1c1c" x="768.6" y="172.3" width="73.2" height="24.65" shape-rendering="crispEdges"/><rect fill="#1e1e1e" x="841.8" y="172.3" width="866.2" height="24.65" shape-rendering="crispEdges"/><rect fill="#272727" x="0" y="196.7" width="146.4" height="24.65" shape-rendering="crispEdges"/><rect fill="#272727" x="146.4" y="196.7" width="97.6" height="24.65" shape-rendering="crispEdges"/><rect fill="#272727" x="244" y="196.7" width="97.6" height="24.65" shape-rendering="crispEdges"/><rect fill="#272727" x="341.6" y="196.7" width="97.6" height="24.65" shape-rendering="crispEdges"/><rect fill="#272727" x="439.2" y="196.7" width="85.4" height="24.65" shape-rendering="crispEdges"/><rect fill="#272727" x="524.6" y="196.7" width="109.8" height="24.65" shape-rendering="crispEdges"/><rect fill="#272727" x="634.4" y="196.7" width="134.2" height="24.65" shape-rendering="crispEdges"/><rect fill="#272727" x="768.6" y="196.7" width="73.2" height="24.65" shape-rendering="crispEdges"/><rect fill="#272727" x="841.8" y="196.7" width="866.2" height="24.65" shape-rendering="crispEdges"/><rect fill="#1c1c1c" x="0" y="221.1" width="146.4" height="24.65" shape-rendering="crispEdges"/><rect fill="#1c1c1c" x="146.4" y="221.1" width="97.6" height="24.65" shape-rendering="crispEdges"/><rect fill="#1c1c1c" x="244" y="221.1" width="97.6" height="24.65" shape-rendering="crispEdges"/><rect fill="#1c1c1c" x="341.6" y="221.1" width="97.6" height="24.65" shape-rendering="crispEdges"/><rect fill="#1c1c1c" x="439.2" y="221.1" width="85.4" height="24.65" shape-rendering="crispEdges"/><rect fill="#1c1c1c" x="524.6" y="221.1" width="109.8" height="24.65" shape-rendering="crispEdges"/><rect fill="#1c1c1c" x="634.4" y="221.1" width="134.2" height="24.65" shape-rendering="crispEdges"/><rect fill="#1c1c1c" x="768.6" y="221.1" width="73.2" height="24.65" shape-rendering="crispEdges"/><rect fill="#1e1e1e" x="841.8" y="221.1" width="866.2" height="24.65" shape-rendering="crispEdges"/><rect fill="#272727" x="0" y="245.5" width="146.4" height="24.65" shape-rendering="crispEdges"/><rect fill="#272727" x="146.4" y="245.5" width="97.6" height="24.65" shape-rendering="crispEdges"/><rect fill="#272727" x="244" y="245.5" width="97.6" height="24.65" shape-rendering="crispEdges"/><rect fill="#272727" x="341.6" y="245.5" width="97.6" height="24.65" shape-rendering="crispEdges"/><rect fill="#272727" x="439.2" y="245.5" width="85.4" height="24.65" shape-rendering="crispEdges"/><rect fill="#272727" x="524.6" y="245.5" width="109.8" height="24.65" shape-rendering="crispEdges"/><rect fill="#272727" x="634.4" y="245.5" width="134.2" height="24.65" shape-rendering="crispEdges"/><rect fill="#272727" x="768.6" y="245.5" width="73.2" height="24.65" shape-rendering="crispEdges"/><rect fill="#272727" x="841.8" y="245.5" width="866.2" height="24.65" shape-rendering="crispEdges"/><rect fill="#1c1c1c" x="0" y="269.9" width="146.4" height="24.65" shape-rendering="crispEdges"/><rect fill="#1c1c1c" x="146.4" y="269.9" width="97.6" height="24.65" shape-rendering="crispEdges"/><rect fill="#1c1c1c" x="244" y="269.9" width="97.6" height="24.65" shape-rendering="crispEdges"/><rect fill="#1c1c1c" x="341.6" y="269.9" width="97.6" height="24.65" shape-rendering="crispEdges"/><rect fill="#1c1c1c" x="439.2" y="269.9" width="85.4" height="24.65" shape-rendering="crispEdges"/><rect fill="#1c1c1c" x="524.6" y="269.9" width="109.8" height="24.65" shape-rendering="crispEdges"/><rect fill="#1c1c1c" x="634.4" y="269.9" width="134.2" height="24.65" shape-rendering="crispEdges"/><rect fill="#1c1c1c" x="768.6" y="269.9" width="73.2" height="24.65" shape-rendering="crispEdges"/><rect fill="#1e1e1e" x="841.8" y="269.9" width="866.2" height="24.65" shape-rendering="crispEdges"/><rect fill="#272727" x="0" y="294.3" width="1708" height="24.65" shape-rendering="crispEdges"/><rect fill="#272727" x="0" y="318.7" width="1708" height="24.65" shape-rendering="crispEdges"/><rect fill="#272727" x="0" y="343.1" width="1708" height="24.65" shape-rendering="crispEdges"/><rect fill="#272727" x="0" y="367.5" width="1708" height="24.65" shape-rendering="crispEdges"/><rect fill="#272727" x="0" y="391.9" width="1708" height="24.65" shape-rendering="crispEdges"/><rect fill="#272727" x="0" y="416.3" width="1708" height="24.65" shape-rendering="crispEdges"/><rect fill="#272727" x="0" y="440.7" width="1708" height="24.65" shape-rendering="crispEdges"/><rect fill="#272727" x="0" y="465.1" width="1708" height="24.65" shape-rendering="crispEdges"/><rect fill="#272727" x="0" y="489.5" width="1708" height="24.65" shape-rendering="crispEdges"/><rect fill="#272727" x="0" y="513.9" width="1708" height="24.65" shape-rendering="crispEdges"/><rect fill="#272727" x="0" y="538.3" width="1708" height="24.65" shape-rendering="crispEdges"/><rect fill="#272727" x="0" y="562.7" width="1708" height="24.65" shape-rendering="crispEdges"/><rect fill="#272727" x="0" y="587.1" width="1708" height="24.65" shape-rendering="crispEdges"/><rect fill="#272727" x="0" y="611.5" width="1708" height="24.65" shape-rendering="crispEdges"/><rect fill="#272727" x="0" y="635.9" width="1708" height="24.65" shape-rendering="crispEdges"/><rect fill="#272727" x="0" y="660.3" width="1708" height="24.65" shape-rendering="crispEdges"/><rect fill="#272727" x="0" y="684.7" width="1708" height="24.65" shape-rendering="crispEdges"/><rect fill="#272727" x="0" y="709.1" width="1708" height="24.65" shape-rendering="crispEdges"/><rect fill="#272727" x="0" y="733.5" width="1708" height="24.65" shape-rendering="crispEdges"/><rect fill="#272727" x="0" y="757.9" width="1708" height="24.65" shape-rendering="crispEdges"/><rect fill="#272727" x="0" y="782.3" width="1708" height="24.65" shape-rendering="crispEdges"/><rect fill="#272727" x="0" y="806.7" width="1708" height="24.65" shape-rendering="crispEdges"/><rect fill="#272727" x="0" y="831.1" width="1708" height="24.65" shape-rendering="crispEdges"/><rect fill="#272727" x="0" y="855.5" width="1708" height="24.65" shape-rendering="crispEdges"/><rect fill="#272727" x="0" y="879.9" width="1708" height="24.65" shape-rendering="crispEdges"/><rect fill="#272727" x="0" y="904.3" width="1708" height="24.65" shape-rendering="crispEdges"/><rect fill="#272727" x="0" y="928.7" width="1708" height="24.65" shape-rendering="crispEdges"/><rect fill="#272727" x="0" y="953.1" width="1708" height="24.65" shape-rendering="crispEdges"/><rect fill="#272727" x="0" y="977.5" width="1708" height="24.65" shape-rendering="crispEdges"/><rect fill="#242f38" x="0" y="1001.9" width="36.6" height="24.65" shape-rendering="crispEdges"/><rect fill="#242f38" x="36.6" y="1001.9" width="61" height="24.65" shape-rendering="crispEdges"/><rect fill="#242f38" x="97.6" y="1001.9" width="36.6" height="24.65" shape-rendering="crispEdges"/><rect fill="#242f38" x="134.2" y="1001.9" width="97.6" height="24.65" shape-rendering="crispEdges"/><rect fill="#242f38" x="231.8" y="1001.9" width="1329.8" height="24.65" shape-rendering="crispEdges"/><rect fill="#242f38" x="1561.6" y="1001.9" width="12.2" height="24.65" shape-rendering="crispEdges"/><rect fill="#242f38" x="1573.8" y="1001.9" width="24.4" height="24.65" shape-rendering="crispEdges"/><rect fill="#242f38" x="1598.2" y="1001.9" width="97.6" height="24.65" shape-rendering="crispEdges"/><rect fill="#242f38" x="1695.8" y="1001.9" width="12.2" height="24.65" shape-rendering="crispEdges"/>
    <g class="terminal-1907232217-matrix">
    <text class="terminal-1907232217-r2" x="1708" y="20" textLength="12.2" clip-path="url(#terminal-1907232217-line-0)">
</text><text class="terminal-1907232217-r3" x="12.2" y="44.4" textLength="24.4" clip-path="url(#terminal-1907232217-line-1)">F1</text><text class="terminal-1907232217-r4" x="36.6" y="44.4" textLength="97.6" clip-path="url(#terminal-1907232217-line-1)">&#160;Summary</text><text class="terminal-1907232217-r3" x="158.6" y="44.4" textLength="24.4" clip-path="url(#terminal-1907232217-line-1)">F2</text><text class="terminal-1907232217-r4" x="183" y="44.4" textLength="85.4" clip-path="url(#terminal-1907232217-line-1)">&#160;Alerts</text><text class="terminal-1907232217-r3" x="292.8" y="44.4" textLength="24.4" clip-path="url(#terminal-1907232217-line-1)">F3</text><text class="terminal-1907232217-r4" x="317.2" y="44.4" textLength="122" clip-path="url(#terminal-1907232217-line-1)">&#160;Positions</text><text class="terminal-1907232217-r5" x="463.6" y="44.4" textLength="24.4" clip-path="url(#terminal-1907232217-line-1)">F4</text><text class="terminal-1907232217-r6" x="488" y="44.4" textLength="158.6" clip-path="url(#terminal-1907232217-line-1)">&#160;Transactions</text><text class="terminal-1907232217-r3" x="671" y="44.4" textLength="24.4" clip-path="url(#terminal-1907232217-line-1)">F5</text><text class="terminal-1907232217-r4" x="695.4" y="44.4" textLength="195.2" clip-path="url(#terminal-1907232217-line-1)">&#160;Market&#160;&amp;&#160;Events</text><text class="terminal-1907232217-r3" x="915" y="44.4" textLength="24.4" clip-path="url(#terminal-1907232217-line-1)">F6</text><text class="terminal-1907232217-r4" x="939.4" y="44.4" textLength="109.8" clip-path="url(#terminal-1907232217-line-1)">&#160;Congress</text><text class="terminal-1907232217-r3" x="1073.6" y="44.4" textLength="24.4" clip-path="url(#terminal-1907232217-line-1)">F7</text><text class="terminal-1907232217-r4" x="1098" y="44.4" textLength="134.2" clip-path="url(#terminal-1907232217-line-1)">&#160;Watchlists</text><text class="terminal-1907232217-r3" x="1256.6" y="44.4" textLength="24.4" clip-path="url(#terminal-1907232217-line-1)">F8</text><text class="terminal-1907232217-r4" x="1281" y="44.4" textLength="134.2" clip-path="url(#terminal-1907232217-line-1)">&#160;Strategies</text><text class="terminal-1907232217-r3" x="1439.6" y="44.4" textLength="24.4" clip-path="url(#terminal-1907232217-line-1)">F9</text><text class="terminal-1907232217-r4" x="1464" y="44.4" textLength="85.4" clip-path="url(#terminal-1907232217-line-1)">&#160;Crypto</text><text class="terminal-1907232217-r3" x="1573.8" y="44.4" textLength="36.6" clip-path="url(#terminal-1907232217-line-1)">F10</text><text class="terminal-1907232217-r4" x="1610.4" y="44.4" textLength="85.4" clip-path="url(#terminal-1907232217-line-1)">&#160;Issues</text><text class="terminal-1907232217-r2" x="1708" y="44.4" textLength="12.2" clip-path="url(#terminal-1907232217-line-1)">
</text><text class="terminal-1907232217-r7" x="0" y="68.8" textLength="463.6" clip-path="url(#terminal-1907232217-line-2)">━━━━━━━━━━━━━━━━━━━━━━━━━━━━━━━━━━━━━╸</text><text class="terminal-1907232217-r8" x="463.6" y="68.8" textLength="183" clip-path="url(#terminal-1907232217-line-2)">━━━━━━━━━━━━━━━</text><text class="terminal-1907232217-r7" x="646.6" y="68.8" textLength="1061.4" clip-path="url(#terminal-1907232217-line-2)">╺━━━━━━━━━━━━━━━━━━━━━━━━━━━━━━━━━━━━━━━━━━━━━━━━━━━━━━━━━━━━━━━━━━━━━━━━━━━━━━━━━━━━━━</text><text class="terminal-1907232217-r2" x="1708" y="68.8" textLength="12.2" clip-path="url(#terminal-1907232217-line-2)">
</text><text class="terminal-1907232217-r9" x="0" y="93.2" textLength="122" clip-path="url(#terminal-1907232217-line-3)">▔▔▔▔▔▔▔▔▔▔</text><text class="terminal-1907232217-r10" x="134.2" y="93.2" textLength="122" clip-path="url(#terminal-1907232217-line-3)">▔▔▔▔▔▔▔▔▔▔</text><text class="terminal-1907232217-r10" x="268.4" y="93.2" textLength="122" clip-path="url(#terminal-1907232217-line-3)">▔▔▔▔▔▔▔▔▔▔</text><text class="terminal-1907232217-r2" x="1708" y="93.2" textLength="12.2" clip-path="url(#terminal-1907232217-line-3)">
</text><text class="terminal-1907232217-r11" x="24.4" y="117.6" textLength="61" clip-path="url(#terminal-1907232217-line-4)">&#160;All&#160;</text><text class="terminal-1907232217-r6" x="146.4" y="117.6" textLength="97.6" clip-path="url(#terminal-1907232217-line-4)">&#160;Equity&#160;</text><text class="terminal-1907232217-r6" x="280.6" y="117.6" textLength="97.6" clip-path="url(#terminal-1907232217-line-4)">&#160;Crypto&#160;</text><text class="terminal-1907232217-r2" x="1708" y="117.6" textLength="12.2" clip-path="url(#terminal-1907232217-line-4)">
</text><text class="terminal-1907232217-r12" x="0" y="142" textLength="122" clip-path="url(#terminal-1907232217-line-5)">▁▁▁▁▁▁▁▁▁▁</text><text class="terminal-1907232217-r13" x="134.2" y="142" textLength="122" clip-path="url(#terminal-1907232217-line-5)">▁▁▁▁▁▁▁▁▁▁</text><text class="terminal-1907232217-r13" x="268.4" y="142" textLength="122" clip-path="url(#terminal-1907232217-line-5)">▁▁▁▁▁▁▁▁▁▁</text><text class="terminal-1907232217-r2" x="1708" y="142" textLength="12.2" clip-path="url(#terminal-1907232217-line-5)">
</text><text class="terminal-1907232217-r6" x="0" y="166.4" textLength="146.4" clip-path="url(#terminal-1907232217-line-6)">&#160;Date&#160;▼&#160;&#160;&#160;&#160;&#160;</text><text class="terminal-1907232217-r6" x="146.4" y="166.4" textLength="97.6" clip-path="url(#terminal-1907232217-line-6)">&#160;Asset&#160;&#160;</text><text class="terminal-1907232217-r6" x="244" y="166.4" textLength="97.6" clip-path="url(#terminal-1907232217-line-6)">&#160;Symbol&#160;</text><text class="terminal-1907232217-r6" x="341.6" y="166.4" textLength="97.6" clip-path="url(#terminal-1907232217-line-6)">&#160;Action&#160;</text><text class="terminal-1907232217-r6" x="439.2" y="166.4" textLength="85.4" clip-path="url(#terminal-1907232217-line-6)">&#160;Qty&#160;&#160;&#160;</text><text class="terminal-1907232217-r6" x="524.6" y="166.4" textLength="109.8" clip-path="url(#terminal-1907232217-line-6)">&#160;Price&#160;&#160;&#160;</text><text class="terminal-1907232217-r6" x="634.4" y="166.4" textLength="134.2" clip-path="url(#terminal-1907232217-line-6)">&#160;Total&#160;&#160;&#160;&#160;&#160;</text><text class="terminal-1907232217-r6" x="768.6" y="166.4" textLength="73.2" clip-path="url(#terminal-1907232217-line-6)">&#160;Type&#160;</text><text class="terminal-1907232217-r2" x="1708" y="166.4" textLength="12.2" clip-path="url(#terminal-1907232217-line-6)">
</text><text class="terminal-1907232217-r11" x="0" y="190.8" textLength="146.4" clip-path="url(#terminal-1907232217-line-7)">&#160;2026-04-22&#160;</text><text class="terminal-1907232217-r14" x="146.4" y="190.8" textLength="97.6" clip-path="url(#terminal-1907232217-line-7)">&#160;Equity&#160;</text><text class="terminal-1907232217-r14" x="244" y="190.8" textLength="97.6" clip-path="url(#terminal-1907232217-line-7)">&#160;NVDA&#160;&#160;&#160;</text><text class="terminal-1907232217-r14" x="341.6" y="190.8" textLength="97.6" clip-path="url(#terminal-1907232217-line-7)">&#160;BUY&#160;&#160;&#160;&#160;</text><text class="terminal-1907232217-r14" x="439.2" y="190.8" textLength="85.4" clip-path="url(#terminal-1907232217-line-7)">&#160;5.00&#160;&#160;</text><text class="terminal-1907232217-r14" x="524.6" y="190.8" textLength="109.8" clip-path="url(#terminal-1907232217-line-7)">&#160;$891.10&#160;</text><text class="terminal-1907232217-r14" x="634.4" y="190.8" textLength="134.2" clip-path="url(#terminal-1907232217-line-7)">&#160;$4,455.50&#160;</text><text class="terminal-1907232217-r14" x="768.6" y="190.8" textLength="73.2" clip-path="url(#terminal-1907232217-line-7)">&#160;BUY&#160;&#160;</text><text class="terminal-1907232217-r2" x="1708" y="190.8" textLength="12.2" clip-path="url(#terminal-1907232217-line-7)">
</text><text class="terminal-1907232217-r14" x="0" y="215.2" textLength="146.4" clip-path="url(#terminal-1907232217-line-8)">&#160;2026-04-18&#160;</text><text class="terminal-1907232217-r14" x="146.4" y="215.2" textLength="97.6" clip-path="url(#terminal-1907232217-line-8)">&#160;Equity&#160;</text><text class="terminal-1907232217-r14" x="244" y="215.2" textLength="97.6" clip-path="url(#terminal-1907232217-line-8)">&#160;AAPL&#160;&#160;&#160;</text><text class="terminal-1907232217-r14" x="341.6" y="215.2" textLength="97.6" clip-path="url(#terminal-1907232217-line-8)">&#160;BUY&#160;&#160;&#160;&#160;</text><text class="terminal-1907232217-r14" x="439.2" y="215.2" textLength="85.4" clip-path="url(#terminal-1907232217-line-8)">&#160;10.00&#160;</text><text class="terminal-1907232217-r14" x="524.6" y="215.2" textLength="109.8" clip-path="url(#terminal-1907232217-line-8)">&#160;$192.40&#160;</text><text class="terminal-1907232217-r14" x="634.4" y="215.2" textLength="134.2" clip-path="url(#terminal-1907232217-line-8)">&#160;$1,924.00&#160;</text><text class="terminal-1907232217-r14" x="768.6" y="215.2" textLength="73.2" clip-path="url(#terminal-1907232217-line-8)">&#160;BUY&#160;&#160;</text><text class="terminal-1907232217-r2" x="1708" y="215.2" textLength="12.2" clip-path="url(#terminal-1907232217-line-8)">
</text><text class="terminal-1907232217-r14" x="0" y="239.6" textLength="146.4" clip-path="url(#terminal-1907232217-line-9)">&#160;2026-04-15&#160;</text><text class="terminal-1907232217-r14" x="146.4" y="239.6" textLength="97.6" clip-path="url(#terminal-1907232217-line-9)">&#160;Equity&#160;</text><text class="terminal-1907232217-r14" x="244" y="239.6" textLength="97.6" clip-path="url(#terminal-1907232217-line-9)">&#160;JNJ&#160;&#160;&#160;&#160;</text><text class="terminal-1907232217-r14" x="341.6" y="239.6" textLength="97.6" clip-path="url(#terminal-1907232217-line-9)">&#160;SELL&#160;&#160;&#160;</text><text class="terminal-1907232217-r14" x="439.2" y="239.6" textLength="85.4" clip-path="url(#terminal-1907232217-line-9)">&#160;10.00&#160;</text><text class="terminal-1907232217-r14" x="524.6" y="239.6" textLength="109.8" clip-path="url(#terminal-1907232217-line-9)">&#160;$160.55&#160;</text><text class="terminal-1907232217-r14" x="634.4" y="239.6" textLength="134.2" clip-path="url(#terminal-1907232217-line-9)">&#160;$1,605.50&#160;</text><text class="terminal-1907232217-r14" x="768.6" y="239.6" textLength="73.2" clip-path="url(#terminal-1907232217-line-9)">&#160;SELL&#160;</text><text class="terminal-1907232217-r2" x="1708" y="239.6" textLength="12.2" clip-path="url(#terminal-1907232217-line-9)">
</text><text class="terminal-1907232217-r14" x="0" y="264" textLength="146.4" clip-path="url(#terminal-1907232217-line-10)">&#160;2026-04-12&#160;</text><text class="terminal-1907232217-r14" x="146.4" y="264" textLength="97.6" clip-path="url(#terminal-1907232217-line-10)">&#160;Equity&#160;</text><text class="terminal-1907232217-r14" x="244" y="264" textLength="97.6" clip-path="url(#terminal-1907232217-line-10)">&#160;VTI&#160;&#160;&#160;&#160;</text><text class="terminal-1907232217-r14" x="341.6" y="264" textLength="97.6" clip-path="url(#terminal-1907232217-line-10)">&#160;BUY&#160;&#160;&#160;&#160;</text><text class="terminal-1907232217-r14" x="439.2" y="264" textLength="85.4" clip-path="url(#terminal-1907232217-line-10)">&#160;15.00&#160;</text><text class="terminal-1907232217-r14" x="524.6" y="264" textLength="109.8" clip-path="url(#terminal-1907232217-line-10)">&#160;$264.20&#160;</text><text class="terminal-1907232217-r14" x="634.4" y="264" textLength="134.2" clip-path="url(#terminal-1907232217-line-10)">&#160;$3,963.00&#160;</text><text class="terminal-1907232217-r14" x="768.6" y="264" textLength="73.2" clip-path="url(#terminal-1907232217-line-10)">&#160;BUY&#160;&#160;</text><text class="terminal-1907232217-r2" x="1708" y="264" textLength="12.2" clip-path="url(#terminal-1907232217-line-10)">
</text><text class="terminal-1907232217-r14" x="0" y="288.4" textLength="146.4" clip-path="url(#terminal-1907232217-line-11)">&#160;2026-04-08&#160;</text><text class="terminal-1907232217-r14" x="146.4" y="288.4" textLength="97.6" clip-path="url(#terminal-1907232217-line-11)">&#160;Equity&#160;</text><text class="terminal-1907232217-r14" x="244" y="288.4" textLength="97.6" clip-path="url(#terminal-1907232217-line-11)">&#160;MSFT&#160;&#160;&#160;</text><text class="terminal-1907232217-r14" x="341.6" y="288.4" textLength="97.6" clip-path="url(#terminal-1907232217-line-11)">&#160;BUY&#160;&#160;&#160;&#160;</text><text class="terminal-1907232217-r14" x="439.2" y="288.4" textLength="85.4" clip-path="url(#terminal-1907232217-line-11)">&#160;5.00&#160;&#160;</text><text class="terminal-1907232217-r14" x="524.6" y="288.4" textLength="109.8" clip-path="url(#terminal-1907232217-line-11)">&#160;$405.80&#160;</text><text class="terminal-1907232217-r14" x="634.4" y="288.4" textLength="134.2" clip-path="url(#terminal-1907232217-line-11)">&#160;$2,029.00&#160;</text><text class="terminal-1907232217-r14" x="768.6" y="288.4" textLength="73.2" clip-path="url(#terminal-1907232217-line-11)">&#160;BUY&#160;&#160;</text><text class="terminal-1907232217-r2" x="1708" y="288.4" textLength="12.2" clip-path="url(#terminal-1907232217-line-11)">
</text><text class="terminal-1907232217-r2" x="1708" y="312.8" textLength="12.2" clip-path="url(#terminal-1907232217-line-12)">
</text><text class="terminal-1907232217-r2" x="1708" y="337.2" textLength="12.2" clip-path="url(#terminal-1907232217-line-13)">
</text><text class="terminal-1907232217-r2" x="1708" y="361.6" textLength="12.2" clip-path="url(#terminal-1907232217-line-14)">
</text><text class="terminal-1907232217-r2" x="1708" y="386" textLength="12.2" clip-path="url(#terminal-1907232217-line-15)">
</text><text class="terminal-1907232217-r2" x="1708" y="410.4" textLength="12.2" clip-path="url(#terminal-1907232217-line-16)">
</text><text class="terminal-1907232217-r2" x="1708" y="434.8" textLength="12.2" clip-path="url(#terminal-1907232217-line-17)">
</text><text class="terminal-1907232217-r2" x="1708" y="459.2" textLength="12.2" clip-path="url(#terminal-1907232217-line-18)">
</text><text class="terminal-1907232217-r2" x="1708" y="483.6" textLength="12.2" clip-path="url(#terminal-1907232217-line-19)">
</text><text class="terminal-1907232217-r2" x="1708" y="508" textLength="12.2" clip-path="url(#terminal-1907232217-line-20)">
</text><text class="terminal-1907232217-r2" x="1708" y="532.4" textLength="12.2" clip-path="url(#terminal-1907232217-line-21)">
</text><text class="terminal-1907232217-r2" x="1708" y="556.8" textLength="12.2" clip-path="url(#terminal-1907232217-line-22)">
</text><text class="terminal-1907232217-r2" x="1708" y="581.2" textLength="12.2" clip-path="url(#terminal-1907232217-line-23)">
</text><text class="terminal-1907232217-r2" x="1708" y="605.6" textLength="12.2" clip-path="url(#terminal-1907232217-line-24)">
</text><text class="terminal-1907232217-r2" x="1708" y="630" textLength="12.2" clip-path="url(#terminal-1907232217-line-25)">
</text><text class="terminal-1907232217-r2" x="1708" y="654.4" textLength="12.2" clip-path="url(#terminal-1907232217-line-26)">
</text><text class="terminal-1907232217-r2" x="1708" y="678.8" textLength="12.2" clip-path="url(#terminal-1907232217-line-27)">
</text><text class="terminal-1907232217-r2" x="1708" y="703.2" textLength="12.2" clip-path="url(#terminal-1907232217-line-28)">
</text><text class="terminal-1907232217-r2" x="1708" y="727.6" textLength="12.2" clip-path="url(#terminal-1907232217-line-29)">
</text><text class="terminal-1907232217-r2" x="1708" y="752" textLength="12.2" clip-path="url(#terminal-1907232217-line-30)">
</text><text class="terminal-1907232217-r2" x="1708" y="776.4" textLength="12.2" clip-path="url(#terminal-1907232217-line-31)">
</text><text class="terminal-1907232217-r2" x="1708" y="800.8" textLength="12.2" clip-path="url(#terminal-1907232217-line-32)">
</text><text class="terminal-1907232217-r2" x="1708" y="825.2" textLength="12.2" clip-path="url(#terminal-1907232217-line-33)">
</text><text class="terminal-1907232217-r2" x="1708" y="849.6" textLength="12.2" clip-path="url(#terminal-1907232217-line-34)">
</text><text class="terminal-1907232217-r2" x="1708" y="874" textLength="12.2" clip-path="url(#terminal-1907232217-line-35)">
</text><text class="terminal-1907232217-r2" x="1708" y="898.4" textLength="12.2" clip-path="url(#terminal-1907232217-line-36)">
</text><text class="terminal-1907232217-r2" x="1708" y="922.8" textLength="12.2" clip-path="url(#terminal-1907232217-line-37)">
</text><text class="terminal-1907232217-r2" x="1708" y="947.2" textLength="12.2" clip-path="url(#terminal-1907232217-line-38)">
</text><text class="terminal-1907232217-r2" x="1708" y="971.6" textLength="12.2" clip-path="url(#terminal-1907232217-line-39)">
</text><text class="terminal-1907232217-r2" x="1708" y="996" textLength="12.2" clip-path="url(#terminal-1907232217-line-40)">
</text><text class="terminal-1907232217-r15" x="0" y="1020.4" textLength="36.6" clip-path="url(#terminal-1907232217-line-41)">&#160;q&#160;</text><text class="terminal-1907232217-r14" x="36.6" y="1020.4" textLength="61" clip-path="url(#terminal-1907232217-line-41)">Quit&#160;</text><text class="terminal-1907232217-r15" x="97.6" y="1020.4" textLength="36.6" clip-path="url(#terminal-1907232217-line-41)">&#160;r&#160;</text><text class="terminal-1907232217-r14" x="134.2" y="1020.4" textLength="97.6" clip-path="url(#terminal-1907232217-line-41)">Refresh&#160;</text><text class="terminal-1907232217-r16" x="1561.6" y="1020.4" textLength="12.2" clip-path="url(#terminal-1907232217-line-41)">▏</text><text class="terminal-1907232217-r15" x="1573.8" y="1020.4" textLength="24.4" clip-path="url(#terminal-1907232217-line-41)">^p</text><text class="terminal-1907232217-r14" x="1598.2" y="1020.4" textLength="97.6" clip-path="url(#terminal-1907232217-line-41)">&#160;palette</text>
    </g>
    </g>
</svg>
